<svg xmlns="http://www.w3.org/2000/svg" width="1440" height="810" viewBox="0 0 1440 810" fill="none">
<g clip-path="url(#clip0_67_4832)" filter="url(#filter0_dd_67_4832)">
<rect width="480" height="397" transform="translate(480 207)" fill="#373737"/>
<rect opacity="0.8" x="496" y="223" width="1.03279" height="19" fill="white"/>
<path d="M497.805 226.614H501.465V237H502.874V226.614H506.533V225.364H497.805V226.614ZM508.149 240.273C509.359 240.273 510.212 239.631 510.717 238.273L514.422 228.273H512.967L510.558 235.227H510.467L508.058 228.273H506.604L509.831 237.045L509.581 237.727C509.092 239.057 508.49 239.182 507.513 238.932L507.172 240.114C507.308 240.182 507.695 240.273 508.149 240.273ZM515.952 240.273H517.293V235.659H517.406C517.702 236.136 518.27 237.182 519.952 237.182C522.134 237.182 523.656 235.432 523.656 232.659C523.656 229.909 522.134 228.159 519.929 228.159C518.225 228.159 517.702 229.205 517.406 229.659H517.247V228.273H515.952V240.273ZM517.27 232.636C517.27 230.682 518.134 229.364 519.77 229.364C521.475 229.364 522.315 230.795 522.315 232.636C522.315 234.5 521.452 235.977 519.77 235.977C518.156 235.977 517.27 234.614 517.27 232.636ZM529.121 237.182C530.894 237.182 532.189 236.295 532.598 234.977L531.303 234.614C530.962 235.523 530.172 235.977 529.121 235.977C527.547 235.977 526.462 234.96 526.399 233.091H532.735V232.523C532.735 229.273 530.803 228.159 528.985 228.159C526.621 228.159 525.053 230.023 525.053 232.705C525.053 235.386 526.598 237.182 529.121 237.182ZM526.399 231.932C526.49 230.574 527.45 229.364 528.985 229.364C530.439 229.364 531.371 230.455 531.371 231.932H526.399ZM541.363 237.205C542.885 237.205 543.681 236.386 543.953 235.818H544.022V237H545.363V231.25C545.363 228.477 543.249 228.159 542.135 228.159C540.817 228.159 539.317 228.614 538.635 230.205L539.908 230.659C540.203 230.023 540.902 229.341 542.181 229.341C543.414 229.341 544.022 229.994 544.022 231.114V231.159C544.022 231.807 543.363 231.75 541.772 231.955C540.152 232.165 538.385 232.523 538.385 234.523C538.385 236.227 539.703 237.205 541.363 237.205ZM541.567 236C540.499 236 539.726 235.523 539.726 234.591C539.726 233.568 540.658 233.25 541.703 233.114C542.272 233.045 543.794 232.886 544.022 232.614V233.841C544.022 234.932 543.158 236 541.567 236ZM555.375 237.182C557.307 237.182 558.58 236 558.807 234.455H557.466C557.216 235.409 556.421 235.977 555.375 235.977C553.785 235.977 552.762 234.659 552.762 232.636C552.762 230.659 553.807 229.364 555.375 229.364C556.557 229.364 557.262 230.091 557.466 230.886H558.807C558.58 229.25 557.194 228.159 555.353 228.159C552.989 228.159 551.421 230.023 551.421 232.682C551.421 235.295 552.921 237.182 555.375 237.182ZM564.073 237.182C566.437 237.182 568.027 235.386 568.027 232.682C568.027 229.955 566.437 228.159 564.073 228.159C561.709 228.159 560.118 229.955 560.118 232.682C560.118 235.386 561.709 237.182 564.073 237.182ZM564.073 235.977C562.277 235.977 561.459 234.432 561.459 232.682C561.459 230.932 562.277 229.364 564.073 229.364C565.868 229.364 566.687 230.932 566.687 232.682C566.687 234.432 565.868 235.977 564.073 235.977ZM569.834 237H571.175V231.545C571.175 230.267 572.107 229.364 573.153 229.364C574.17 229.364 574.88 230.028 574.88 231.023V237H576.243V231.318C576.243 230.193 576.948 229.364 578.175 229.364C579.13 229.364 579.948 229.869 579.948 231.159V237H581.289V231.159C581.289 229.108 580.187 228.159 578.63 228.159C577.38 228.159 576.465 228.733 576.016 229.636H575.925C575.493 228.705 574.732 228.159 573.584 228.159C572.448 228.159 571.607 228.705 571.243 229.636H571.13V228.273H569.834V237ZM583.501 237H584.842V231.545C584.842 230.267 585.773 229.364 586.819 229.364C587.836 229.364 588.546 230.028 588.546 231.023V237H589.91V231.318C589.91 230.193 590.614 229.364 591.842 229.364C592.796 229.364 593.614 229.869 593.614 231.159V237H594.955V231.159C594.955 229.108 593.853 228.159 592.296 228.159C591.046 228.159 590.131 228.733 589.682 229.636H589.592C589.16 228.705 588.398 228.159 587.251 228.159C586.114 228.159 585.273 228.705 584.91 229.636H584.796V228.273H583.501V237ZM599.735 237.205C601.258 237.205 602.053 236.386 602.326 235.818H602.394V237H603.735V231.25C603.735 228.477 601.621 228.159 600.508 228.159C599.19 228.159 597.69 228.614 597.008 230.205L598.28 230.659C598.576 230.023 599.275 229.341 600.553 229.341C601.786 229.341 602.394 229.994 602.394 231.114V231.159C602.394 231.807 601.735 231.75 600.144 231.955C598.525 232.165 596.758 232.523 596.758 234.523C596.758 236.227 598.076 237.205 599.735 237.205ZM599.94 236C598.871 236 598.099 235.523 598.099 234.591C598.099 233.568 599.03 233.25 600.076 233.114C600.644 233.045 602.167 232.886 602.394 232.614V233.841C602.394 234.932 601.53 236 599.94 236ZM607.283 231.75C607.283 230.227 608.227 229.364 609.511 229.364C610.755 229.364 611.511 230.176 611.511 231.545V237H612.852V231.455C612.852 229.227 611.664 228.159 609.897 228.159C608.579 228.159 607.761 228.75 607.352 229.636H607.238V228.273H605.942V237H607.283V231.75ZM618.357 237.182C620.039 237.182 620.607 236.136 620.903 235.659H621.062V237H622.357V225.364H621.016V229.659H620.903C620.607 229.205 620.085 228.159 618.38 228.159C616.175 228.159 614.653 229.909 614.653 232.659C614.653 235.432 616.175 237.182 618.357 237.182ZM618.539 235.977C616.857 235.977 615.994 234.5 615.994 232.636C615.994 230.795 616.835 229.364 618.539 229.364C620.175 229.364 621.039 230.682 621.039 232.636C621.039 234.614 620.153 235.977 618.539 235.977ZM632.565 237.182C634.928 237.182 636.519 235.386 636.519 232.682C636.519 229.955 634.928 228.159 632.565 228.159C630.201 228.159 628.61 229.955 628.61 232.682C628.61 235.386 630.201 237.182 632.565 237.182ZM632.565 235.977C630.769 235.977 629.951 234.432 629.951 232.682C629.951 230.932 630.769 229.364 632.565 229.364C634.36 229.364 635.178 230.932 635.178 232.682C635.178 234.432 634.36 235.977 632.565 235.977ZM638.326 237H639.667V231.477C639.667 230.295 640.599 229.432 641.872 229.432C642.23 229.432 642.599 229.5 642.69 229.523V228.159C642.536 228.148 642.184 228.136 641.985 228.136C640.94 228.136 640.031 228.727 639.713 229.591H639.622V228.273H638.326V237ZM654.481 230.227C654.061 228.989 653.118 228.159 651.39 228.159C649.549 228.159 648.186 229.205 648.186 230.682C648.186 231.886 648.902 232.693 650.504 233.068L651.958 233.409C652.839 233.614 653.254 234.034 653.254 234.636C653.254 235.386 652.458 236 651.208 236C650.112 236 649.424 235.528 649.186 234.591L647.913 234.909C648.225 236.392 649.447 237.182 651.231 237.182C653.26 237.182 654.64 236.074 654.64 234.568C654.64 233.352 653.879 232.585 652.322 232.205L651.027 231.886C649.993 231.631 649.527 231.284 649.527 230.614C649.527 229.864 650.322 229.318 651.39 229.318C652.561 229.318 653.044 229.966 653.277 230.568L654.481 230.227ZM660.078 237.182C661.851 237.182 663.146 236.295 663.555 234.977L662.26 234.614C661.919 235.523 661.129 235.977 660.078 235.977C658.504 235.977 657.419 234.96 657.356 233.091H663.691V232.523C663.691 229.273 661.76 228.159 659.941 228.159C657.578 228.159 656.01 230.023 656.01 232.705C656.01 235.386 657.555 237.182 660.078 237.182ZM657.356 231.932C657.447 230.574 658.407 229.364 659.941 229.364C661.396 229.364 662.328 230.455 662.328 231.932H657.356ZM668.059 237.205C669.582 237.205 670.378 236.386 670.65 235.818H670.719V237H672.059V231.25C672.059 228.477 669.946 228.159 668.832 228.159C667.514 228.159 666.014 228.614 665.332 230.205L666.605 230.659C666.9 230.023 667.599 229.341 668.878 229.341C670.111 229.341 670.719 229.994 670.719 231.114V231.159C670.719 231.807 670.059 231.75 668.469 231.955C666.849 232.165 665.082 232.523 665.082 234.523C665.082 236.227 666.4 237.205 668.059 237.205ZM668.264 236C667.196 236 666.423 235.523 666.423 234.591C666.423 233.568 667.355 233.25 668.4 233.114C668.969 233.045 670.491 232.886 670.719 232.614V233.841C670.719 234.932 669.855 236 668.264 236ZM674.267 237H675.608V231.477C675.608 230.295 676.54 229.432 677.812 229.432C678.17 229.432 678.54 229.5 678.631 229.523V228.159C678.477 228.148 678.125 228.136 677.926 228.136C676.881 228.136 675.971 228.727 675.653 229.591H675.562V228.273H674.267V237ZM683.26 237.182C685.192 237.182 686.464 236 686.692 234.455H685.351C685.101 235.409 684.305 235.977 683.26 235.977C681.669 235.977 680.646 234.659 680.646 232.636C680.646 230.659 681.692 229.364 683.26 229.364C684.442 229.364 685.146 230.091 685.351 230.886H686.692C686.464 229.25 685.078 228.159 683.237 228.159C680.873 228.159 679.305 230.023 679.305 232.682C679.305 235.295 680.805 237.182 683.26 237.182ZM689.753 231.75C689.753 230.227 690.724 229.364 692.048 229.364C693.31 229.364 694.071 230.159 694.071 231.545V237H695.412V231.455C695.412 229.21 694.219 228.159 692.435 228.159C691.06 228.159 690.275 228.733 689.866 229.636H689.753V225.364H688.412V237H689.753V231.75ZM698.602 237.091C699.165 237.091 699.625 236.631 699.625 236.068C699.625 235.506 699.165 235.045 698.602 235.045C698.04 235.045 697.58 235.506 697.58 236.068C697.58 236.631 698.04 237.091 698.602 237.091ZM702.769 237.091C703.331 237.091 703.791 236.631 703.791 236.068C703.791 235.506 703.331 235.045 702.769 235.045C702.206 235.045 701.746 235.506 701.746 236.068C701.746 236.631 702.206 237.091 702.769 237.091ZM706.935 237.091C707.497 237.091 707.957 236.631 707.957 236.068C707.957 235.506 707.497 235.045 706.935 235.045C706.372 235.045 705.912 235.506 705.912 236.068C705.912 236.631 706.372 237.091 706.935 237.091Z" fill="#757575"/>
<line x1="496" y1="257.5" x2="944" y2="257.5" stroke="#E5E5E5" stroke-opacity="0.1"/>
<path d="M497.057 291H498.114V287.097H501.898V286.159H498.114V283.21H502.29V282.273H497.057V291ZM504.083 291H505.089V284.455H504.083V291ZM504.595 283.364C504.987 283.364 505.311 283.057 505.311 282.682C505.311 282.307 504.987 282 504.595 282C504.203 282 503.879 282.307 503.879 282.682C503.879 283.057 504.203 283.364 504.595 283.364ZM508.057 282.273H507.051V291H508.057V282.273ZM512.763 291.136C514.093 291.136 515.064 290.472 515.371 289.483L514.399 289.21C514.144 289.892 513.551 290.233 512.763 290.233C511.583 290.233 510.769 289.47 510.722 288.068H515.473V287.642C515.473 285.205 514.024 284.369 512.661 284.369C510.888 284.369 509.712 285.767 509.712 287.778C509.712 289.79 510.871 291.136 512.763 291.136ZM510.722 287.199C510.79 286.18 511.51 285.273 512.661 285.273C513.752 285.273 514.451 286.091 514.451 287.199H510.722ZM525.527 284.455H526.55C526.503 283.138 525.289 282.153 523.601 282.153C521.931 282.153 520.618 283.125 520.618 284.591C520.618 285.767 521.47 286.466 522.834 286.858L523.908 287.165C524.828 287.421 525.647 287.744 525.647 288.614C525.647 289.568 524.726 290.199 523.516 290.199C522.476 290.199 521.556 289.739 521.47 288.75H520.379C520.482 290.182 521.641 291.153 523.516 291.153C525.527 291.153 526.669 290.046 526.669 288.631C526.669 286.994 525.118 286.466 524.215 286.227L523.328 285.989C522.681 285.818 521.641 285.477 521.641 284.54C521.641 283.705 522.408 283.091 523.567 283.091C524.624 283.091 525.425 283.594 525.527 284.455ZM529.038 293.455C529.946 293.455 530.585 292.973 530.964 291.955L533.743 284.455H532.652L530.845 289.671H530.777L528.97 284.455H527.879L530.3 291.034L530.112 291.546C529.746 292.543 529.294 292.636 528.561 292.449L528.305 293.335C528.407 293.386 528.697 293.455 529.038 293.455ZM539.827 285.921C539.511 284.992 538.804 284.369 537.508 284.369C536.128 284.369 535.105 285.153 535.105 286.261C535.105 287.165 535.642 287.77 536.844 288.051L537.934 288.307C538.595 288.46 538.906 288.776 538.906 289.227C538.906 289.79 538.309 290.25 537.372 290.25C536.55 290.25 536.034 289.896 535.855 289.193L534.9 289.432C535.135 290.544 536.051 291.136 537.389 291.136C538.91 291.136 539.946 290.305 539.946 289.176C539.946 288.264 539.375 287.689 538.207 287.403L537.236 287.165C536.46 286.973 536.111 286.713 536.111 286.21C536.111 285.648 536.707 285.239 537.508 285.239C538.386 285.239 538.748 285.724 538.923 286.176L539.827 285.921ZM544.426 284.455H543.029V282.886H542.023V284.455H541.034V285.307H542.023V289.398C542.023 290.54 542.943 291.085 543.796 291.085C544.171 291.085 544.409 291.017 544.546 290.966L544.341 290.063C544.256 290.08 544.119 290.114 543.898 290.114C543.455 290.114 543.029 289.977 543.029 289.125V285.307H544.426V284.455ZM548.733 291.136C550.063 291.136 551.034 290.472 551.341 289.483L550.369 289.21C550.114 289.892 549.521 290.233 548.733 290.233C547.553 290.233 546.739 289.47 546.692 288.068H551.443V287.642C551.443 285.205 549.994 284.369 548.631 284.369C546.858 284.369 545.682 285.767 545.682 287.778C545.682 289.79 546.841 291.136 548.733 291.136ZM546.692 287.199C546.76 286.18 547.48 285.273 548.631 285.273C549.722 285.273 550.421 286.091 550.421 287.199H546.692ZM553.093 291H554.099V286.909C554.099 285.95 554.798 285.273 555.582 285.273C556.345 285.273 556.877 285.771 556.877 286.517V291H557.9V286.739C557.9 285.895 558.428 285.273 559.349 285.273C560.065 285.273 560.678 285.652 560.678 286.619V291H561.684V286.619C561.684 285.081 560.857 284.369 559.69 284.369C558.752 284.369 558.066 284.8 557.729 285.477H557.661C557.337 284.778 556.766 284.369 555.906 284.369C555.053 284.369 554.423 284.778 554.15 285.477H554.065V284.455H553.093V291Z" fill="#808080"/>
<path fill-rule="evenodd" clip-rule="evenodd" d="M506.313 319.605C506.313 317.234 508.235 315.313 510.605 315.313C512.976 315.313 514.898 317.234 514.898 319.605C514.898 320.717 514.475 321.73 513.781 322.493C513.717 322.517 513.658 322.555 513.606 322.606C513.555 322.658 513.517 322.717 513.493 322.781C512.73 323.475 511.717 323.898 510.605 323.898C508.235 323.898 506.313 321.976 506.313 319.605ZM513.977 323.684C513.062 324.442 511.887 324.898 510.605 324.898C507.682 324.898 505.313 322.528 505.313 319.605C505.313 316.682 507.682 314.313 510.605 314.313C513.528 314.313 515.898 316.682 515.898 319.605C515.898 320.887 515.442 322.062 514.684 322.977L518.147 326.44C518.343 326.635 518.343 326.952 518.147 327.147C517.952 327.343 517.636 327.343 517.44 327.147L513.977 323.684Z" fill="#999999"/>
<path d="M529.145 326H530.29V321.771H534.389V320.756H530.29V317.561H534.814V316.546H529.145V326ZM536.627 326H537.717V318.909H536.627V326ZM537.181 317.727C537.606 317.727 537.957 317.395 537.957 316.989C537.957 316.582 537.606 316.25 537.181 316.25C536.756 316.25 536.405 316.582 536.405 316.989C536.405 317.395 536.756 317.727 537.181 317.727ZM540.801 316.546H539.712V326H540.801V316.546ZM545.77 326.148C547.21 326.148 548.263 325.428 548.595 324.357L547.543 324.061C547.266 324.8 546.624 325.169 545.77 325.169C544.491 325.169 543.609 324.343 543.559 322.824H548.706V322.362C548.706 319.722 547.136 318.817 545.659 318.817C543.739 318.817 542.465 320.331 542.465 322.51C542.465 324.689 543.72 326.148 545.77 326.148ZM543.559 321.882C543.633 320.779 544.413 319.796 545.659 319.796C546.841 319.796 547.598 320.682 547.598 321.882H543.559ZM559.338 318.909H560.446C560.395 317.483 559.079 316.416 557.251 316.416C555.441 316.416 554.02 317.469 554.02 319.057C554.02 320.331 554.943 321.088 556.42 321.513L557.584 321.845C558.581 322.122 559.467 322.473 559.467 323.415C559.467 324.449 558.47 325.132 557.159 325.132C556.032 325.132 555.035 324.634 554.943 323.563H553.761C553.872 325.114 555.128 326.166 557.159 326.166C559.338 326.166 560.575 324.966 560.575 323.433C560.575 321.661 558.895 321.088 557.916 320.83L556.956 320.571C556.254 320.386 555.128 320.017 555.128 319.001C555.128 318.097 555.959 317.432 557.214 317.432C558.359 317.432 559.227 317.977 559.338 318.909ZM565.283 326.148C566.723 326.148 567.776 325.428 568.108 324.357L567.055 324.061C566.778 324.8 566.137 325.169 565.283 325.169C564.004 325.169 563.122 324.343 563.071 322.824H568.219V322.362C568.219 319.722 566.649 318.817 565.172 318.817C563.251 318.817 561.977 320.331 561.977 322.51C561.977 324.689 563.233 326.148 565.283 326.148ZM563.071 321.882C563.145 320.779 563.925 319.796 565.172 319.796C566.354 319.796 567.111 320.682 567.111 321.882H563.071ZM571.963 326.166C573.2 326.166 573.846 325.501 574.068 325.04H574.123V326H575.213V321.328C575.213 319.075 573.495 318.817 572.591 318.817C571.52 318.817 570.301 319.186 569.747 320.479L570.781 320.848C571.021 320.331 571.589 319.777 572.627 319.777C573.629 319.777 574.123 320.308 574.123 321.217V321.254C574.123 321.781 573.588 321.734 572.295 321.901C570.979 322.071 569.544 322.362 569.544 323.987C569.544 325.372 570.615 326.166 571.963 326.166ZM572.129 325.188C571.261 325.188 570.633 324.8 570.633 324.043C570.633 323.212 571.39 322.953 572.24 322.842C572.701 322.787 573.939 322.658 574.123 322.436V323.433C574.123 324.32 573.422 325.188 572.129 325.188ZM577.201 326H578.291V321.513C578.291 320.553 579.048 319.851 580.082 319.851C580.373 319.851 580.673 319.906 580.747 319.925V318.817C580.622 318.808 580.336 318.798 580.174 318.798C579.325 318.798 578.586 319.278 578.328 319.98H578.254V318.909H577.201V326ZM584.703 326.148C586.273 326.148 587.307 325.188 587.491 323.932H586.402C586.199 324.707 585.552 325.169 584.703 325.169C583.41 325.169 582.579 324.098 582.579 322.455C582.579 320.848 583.429 319.796 584.703 319.796C585.663 319.796 586.236 320.386 586.402 321.033H587.491C587.307 319.703 586.18 318.817 584.685 318.817C582.764 318.817 581.49 320.331 581.49 322.492C581.49 324.615 582.709 326.148 584.703 326.148ZM590.174 321.734C590.174 320.497 590.963 319.796 592.039 319.796C593.063 319.796 593.682 320.442 593.682 321.568V326H594.772V321.494C594.772 319.671 593.802 318.817 592.353 318.817C591.235 318.817 590.598 319.283 590.266 320.017H590.174V316.546H589.084V326H590.174V321.734ZM597.559 326.074C598.016 326.074 598.39 325.7 598.39 325.243C598.39 324.786 598.016 324.412 597.559 324.412C597.102 324.412 596.728 324.786 596.728 325.243C596.728 325.7 597.102 326.074 597.559 326.074ZM601.139 326.074C601.596 326.074 601.97 325.7 601.97 325.243C601.97 324.786 601.596 324.412 601.139 324.412C600.682 324.412 600.308 324.786 600.308 325.243C600.308 325.7 600.682 326.074 601.139 326.074ZM604.719 326.074C605.176 326.074 605.55 325.7 605.55 325.243C605.55 324.786 605.176 324.412 604.719 324.412C604.262 324.412 603.888 324.786 603.888 325.243C603.888 325.7 604.262 326.074 604.719 326.074Z" fill="#E5E5E5"/>
<rect x="920" y="313" width="16" height="16" rx="2" fill="#585858"/>
<path d="M929.648 316.386H928.7L926.356 325.094H927.304L929.648 316.386Z" fill="#C5C5C5"/>
<path fill-rule="evenodd" clip-rule="evenodd" d="M507.5 348C506.395 348 505.5 348.895 505.5 350V356.75C505.5 357.855 506.395 358.75 507.5 358.75H516.829C517.747 358.75 518.547 358.125 518.769 357.235L519.519 354.235C519.753 353.298 519.288 352.383 518.5 351.973V351.5C518.5 350.395 517.605 349.5 516.5 349.5H512.454C512.257 349.5 512.064 349.442 511.899 349.332L510.405 348.336C510.077 348.117 509.691 348 509.296 348H507.5ZM517.5 351.5V351.75H508.671C507.753 351.75 506.953 352.375 506.731 353.265L506.5 354.188V350C506.5 349.448 506.948 349 507.5 349H509.296C509.493 349 509.686 349.058 509.851 349.168L511.345 350.164C511.673 350.383 512.059 350.5 512.454 350.5H516.5C517.052 350.5 517.5 350.948 517.5 351.5Z" fill="#999999"/>
<path d="M536.753 351.5C536.402 349.561 534.851 348.416 532.949 348.416C530.53 348.416 528.776 350.281 528.776 353.273C528.776 356.264 530.53 358.129 532.949 358.129C534.851 358.129 536.402 356.984 536.753 355.046H535.608C535.331 356.357 534.205 357.058 532.949 357.058C531.232 357.058 529.884 355.729 529.884 353.273C529.884 350.817 531.232 349.487 532.949 349.487C534.205 349.487 535.331 350.189 535.608 351.5H536.753ZM541.336 358.148C543.256 358.148 544.549 356.689 544.549 354.492C544.549 352.276 543.256 350.817 541.336 350.817C539.415 350.817 538.123 352.276 538.123 354.492C538.123 356.689 539.415 358.148 541.336 358.148ZM541.336 357.169C539.877 357.169 539.212 355.913 539.212 354.492C539.212 353.07 539.877 351.796 541.336 351.796C542.795 351.796 543.459 353.07 543.459 354.492C543.459 355.913 542.795 357.169 541.336 357.169ZM547.301 348.546H546.212V358H547.301V348.546ZM550.386 348.546H549.297V358H550.386V348.546ZM554.469 358.166C555.706 358.166 556.352 357.501 556.574 357.04H556.629V358H557.719V353.328C557.719 351.075 556.001 350.817 555.096 350.817C554.025 350.817 552.807 351.186 552.253 352.479L553.287 352.848C553.527 352.331 554.095 351.777 555.133 351.777C556.135 351.777 556.629 352.308 556.629 353.217V353.254C556.629 353.781 556.094 353.734 554.801 353.901C553.485 354.071 552.05 354.362 552.05 355.987C552.05 357.372 553.121 358.166 554.469 358.166ZM554.635 357.188C553.767 357.188 553.139 356.8 553.139 356.043C553.139 355.212 553.896 354.953 554.746 354.842C555.207 354.787 556.444 354.658 556.629 354.436V355.433C556.629 356.32 555.927 357.188 554.635 357.188ZM559.707 360.659H560.797V356.911H560.889C561.129 357.298 561.591 358.148 562.957 358.148C564.73 358.148 565.967 356.726 565.967 354.473C565.967 352.239 564.73 350.817 562.939 350.817C561.554 350.817 561.129 351.666 560.889 352.036H560.76V350.909H559.707V360.659ZM560.778 354.455C560.778 352.867 561.48 351.796 562.809 351.796C564.194 351.796 564.878 352.959 564.878 354.455C564.878 355.969 564.176 357.169 562.809 357.169C561.498 357.169 560.778 356.061 560.778 354.455ZM572.652 352.497C572.31 351.491 571.544 350.817 570.14 350.817C568.645 350.817 567.537 351.666 567.537 352.867C567.537 353.845 568.118 354.501 569.42 354.805L570.602 355.082C571.318 355.249 571.655 355.59 571.655 356.08C571.655 356.689 571.008 357.188 569.993 357.188C569.102 357.188 568.543 356.804 568.349 356.043L567.315 356.301C567.569 357.506 568.562 358.148 570.011 358.148C571.659 358.148 572.781 357.248 572.781 356.024C572.781 355.036 572.162 354.413 570.897 354.104L569.845 353.845C569.005 353.637 568.626 353.356 568.626 352.811C568.626 352.202 569.272 351.759 570.14 351.759C571.091 351.759 571.484 352.285 571.673 352.774L572.652 352.497ZM577.394 358.148C578.834 358.148 579.887 357.428 580.219 356.357L579.167 356.061C578.89 356.8 578.248 357.169 577.394 357.169C576.115 357.169 575.233 356.343 575.183 354.824H580.33V354.362C580.33 351.722 578.76 350.817 577.283 350.817C575.363 350.817 574.089 352.331 574.089 354.51C574.089 356.689 575.344 358.148 577.394 358.148ZM575.183 353.882C575.257 352.779 576.037 351.796 577.283 351.796C578.465 351.796 579.222 352.682 579.222 353.882H575.183ZM585.791 358H586.936V353.771H591.036V352.756H586.936V349.561H591.46V348.546H585.791V358ZM595.634 358.148C597.554 358.148 598.847 356.689 598.847 354.492C598.847 352.276 597.554 350.817 595.634 350.817C593.713 350.817 592.421 352.276 592.421 354.492C592.421 356.689 593.713 358.148 595.634 358.148ZM595.634 357.169C594.175 357.169 593.51 355.913 593.51 354.492C593.51 353.07 594.175 351.796 595.634 351.796C597.093 351.796 597.757 353.07 597.757 354.492C597.757 355.913 597.093 357.169 595.634 357.169ZM601.599 348.546H600.51V358H601.599V348.546ZM606.272 358.148C607.639 358.148 608.1 357.298 608.341 356.911H608.47V358H609.522V348.546H608.433V352.036H608.341C608.1 351.666 607.676 350.817 606.291 350.817C604.5 350.817 603.262 352.239 603.262 354.473C603.262 356.726 604.5 358.148 606.272 358.148ZM606.42 357.169C605.054 357.169 604.352 355.969 604.352 354.455C604.352 352.959 605.035 351.796 606.42 351.796C607.75 351.796 608.451 352.867 608.451 354.455C608.451 356.061 607.731 357.169 606.42 357.169ZM614.642 358.148C616.082 358.148 617.135 357.428 617.467 356.357L616.415 356.061C616.138 356.8 615.496 357.169 614.642 357.169C613.363 357.169 612.482 356.343 612.431 354.824H617.578V354.362C617.578 351.722 616.009 350.817 614.531 350.817C612.611 350.817 611.337 352.331 611.337 354.51C611.337 356.689 612.592 358.148 614.642 358.148ZM612.431 353.882C612.505 352.779 613.285 351.796 614.531 351.796C615.713 351.796 616.47 352.682 616.47 353.882H612.431ZM619.235 358H620.325V353.513C620.325 352.553 621.082 351.851 622.116 351.851C622.407 351.851 622.707 351.906 622.781 351.925V350.817C622.656 350.808 622.37 350.798 622.208 350.798C621.359 350.798 620.62 351.278 620.362 351.98H620.288V350.909H619.235V358ZM629.095 352.497C628.753 351.491 627.987 350.817 626.584 350.817C625.088 350.817 623.98 351.666 623.98 352.867C623.98 353.845 624.562 354.501 625.864 354.805L627.045 355.082C627.761 355.249 628.098 355.59 628.098 356.08C628.098 356.689 627.452 357.188 626.436 357.188C625.545 357.188 624.986 356.804 624.793 356.043L623.758 356.301C624.012 357.506 625.005 358.148 626.454 358.148C628.103 358.148 629.224 357.248 629.224 356.024C629.224 355.036 628.606 354.413 627.341 354.104L626.288 353.845C625.448 353.637 625.07 353.356 625.07 352.811C625.07 352.202 625.716 351.759 626.584 351.759C627.535 351.759 627.927 352.285 628.116 352.774L629.095 352.497ZM634.521 358H635.61V350.909H634.521V358ZM635.075 349.727C635.499 349.727 635.85 349.395 635.85 348.989C635.85 348.582 635.499 348.25 635.075 348.25C634.65 348.25 634.299 348.582 634.299 348.989C634.299 349.395 634.65 349.727 635.075 349.727ZM638.695 353.734C638.695 352.497 639.461 351.796 640.505 351.796C641.516 351.796 642.13 352.456 642.13 353.568V358H643.219V353.494C643.219 351.685 642.254 350.817 640.819 350.817C639.748 350.817 639.083 351.297 638.75 352.017H638.658V350.909H637.606V358H638.695V353.734ZM649.014 358H654.794V356.984H650.159V353.771H654.425V352.756H650.159V349.561H654.72V348.546H649.014V358ZM657.448 350.909H656.193L658.445 354.455L656.193 358H657.448L659.147 355.249L660.846 358H662.102L659.812 354.455L662.102 350.909H660.846L659.147 353.808L657.448 350.909ZM663.656 360.659H664.746V356.911H664.838C665.078 357.298 665.54 358.148 666.906 358.148C668.679 358.148 669.916 356.726 669.916 354.473C669.916 352.239 668.679 350.817 666.888 350.817C665.503 350.817 665.078 351.666 664.838 352.036H664.709V350.909H663.656V360.659ZM664.727 354.455C664.727 352.867 665.429 351.796 666.759 351.796C668.144 351.796 668.827 352.959 668.827 354.455C668.827 355.969 668.125 357.169 666.759 357.169C665.448 357.169 664.727 356.061 664.727 354.455ZM672.668 348.546H671.578V358H672.668V348.546ZM677.544 358.148C679.464 358.148 680.757 356.689 680.757 354.492C680.757 352.276 679.464 350.817 677.544 350.817C675.623 350.817 674.331 352.276 674.331 354.492C674.331 356.689 675.623 358.148 677.544 358.148ZM677.544 357.169C676.085 357.169 675.42 355.913 675.42 354.492C675.42 353.07 676.085 351.796 677.544 351.796C679.003 351.796 679.667 353.07 679.667 354.492C679.667 355.913 679.003 357.169 677.544 357.169ZM682.42 358H683.509V353.513C683.509 352.553 684.267 351.851 685.301 351.851C685.592 351.851 685.892 351.906 685.965 351.925V350.817C685.841 350.808 685.555 350.798 685.393 350.798C684.544 350.798 683.805 351.278 683.546 351.98H683.473V350.909H682.42V358ZM690.014 358.148C691.454 358.148 692.507 357.428 692.839 356.357L691.787 356.061C691.51 356.8 690.868 357.169 690.014 357.169C688.735 357.169 687.854 356.343 687.803 354.824H692.95V354.362C692.95 351.722 691.381 350.817 689.903 350.817C687.983 350.817 686.709 352.331 686.709 354.51C686.709 356.689 687.964 358.148 690.014 358.148ZM687.803 353.882C687.877 352.779 688.657 351.796 689.903 351.796C691.085 351.796 691.842 352.682 691.842 353.882H687.803ZM694.608 358H695.697V353.513C695.697 352.553 696.454 351.851 697.488 351.851C697.779 351.851 698.079 351.906 698.153 351.925V350.817C698.028 350.808 697.742 350.798 697.581 350.798C696.731 350.798 695.992 351.278 695.734 351.98H695.66V350.909H694.608V358Z" fill="#E5E5E5"/>
<path d="M496.58 379.21H499.324V387H500.381V379.21H503.125V378.273H496.58V379.21ZM506.535 387.136C507.864 387.136 508.836 386.472 509.143 385.483L508.171 385.21C507.915 385.892 507.323 386.233 506.535 386.233C505.354 386.233 504.54 385.47 504.494 384.068H509.245V383.642C509.245 381.205 507.796 380.369 506.432 380.369C504.66 380.369 503.484 381.767 503.484 383.778C503.484 385.79 504.643 387.136 506.535 387.136ZM504.494 383.199C504.562 382.18 505.282 381.273 506.432 381.273C507.523 381.273 508.222 382.091 508.222 383.199H504.494ZM510.895 387H511.901V382.858C511.901 381.972 512.599 381.324 513.554 381.324C513.822 381.324 514.099 381.375 514.168 381.392V380.369C514.052 380.361 513.788 380.352 513.639 380.352C512.855 380.352 512.173 380.795 511.935 381.443H511.866V380.455H510.895V387ZM515.48 387H516.485V382.909C516.485 381.95 517.184 381.273 517.968 381.273C518.731 381.273 519.264 381.771 519.264 382.517V387H520.286V382.739C520.286 381.895 520.815 381.273 521.735 381.273C522.451 381.273 523.065 381.652 523.065 382.619V387H524.071V382.619C524.071 381.081 523.244 380.369 522.076 380.369C521.139 380.369 520.453 380.8 520.116 381.477H520.048C519.724 380.778 519.153 380.369 518.292 380.369C517.44 380.369 516.809 380.778 516.536 381.477H516.451V380.455H515.48V387ZM526.029 387H527.035V380.455H526.029V387ZM526.541 379.364C526.933 379.364 527.257 379.057 527.257 378.682C527.257 378.307 526.933 378 526.541 378C526.149 378 525.825 378.307 525.825 378.682C525.825 379.057 526.149 379.364 526.541 379.364ZM530.003 383.063C530.003 381.921 530.71 381.273 531.673 381.273C532.606 381.273 533.173 381.882 533.173 382.909V387H534.179V382.841C534.179 381.171 533.288 380.369 531.963 380.369C530.974 380.369 530.361 380.813 530.054 381.477H529.969V380.455H528.997V387H530.003V383.063ZM538.063 387.153C539.205 387.153 539.801 386.54 540.006 386.114H540.057V387H541.063V382.688C541.063 380.608 539.477 380.369 538.642 380.369C537.654 380.369 536.529 380.71 536.017 381.903L536.972 382.244C537.193 381.767 537.718 381.256 538.676 381.256C539.601 381.256 540.057 381.746 540.057 382.585V382.619C540.057 383.105 539.563 383.063 538.37 383.216C537.155 383.374 535.83 383.642 535.83 385.142C535.83 386.421 536.818 387.153 538.063 387.153ZM538.216 386.25C537.415 386.25 536.835 385.892 536.835 385.193C536.835 384.426 537.534 384.188 538.318 384.085C538.745 384.034 539.887 383.915 540.057 383.71V384.631C540.057 385.449 539.409 386.25 538.216 386.25ZM544.024 378.273H543.018V387H544.024V378.273ZM550.622 381.921C550.307 380.992 549.6 380.369 548.304 380.369C546.923 380.369 545.901 381.153 545.901 382.261C545.901 383.165 546.438 383.77 547.639 384.051L548.73 384.307C549.391 384.46 549.702 384.776 549.702 385.227C549.702 385.79 549.105 386.25 548.168 386.25C547.345 386.25 546.83 385.896 546.651 385.193L545.696 385.432C545.931 386.544 546.847 387.136 548.185 387.136C549.706 387.136 550.742 386.305 550.742 385.176C550.742 384.264 550.171 383.689 549.003 383.403L548.031 383.165C547.256 382.973 546.906 382.713 546.906 382.21C546.906 381.648 547.503 381.239 548.304 381.239C549.182 381.239 549.544 381.724 549.719 382.176L550.622 381.921Z" fill="#808080"/>
<path d="M505 415H519M512 408V422" stroke="#999999" stroke-linecap="round"/>
<path d="M529.533 420L530.484 417.322H534.306L535.257 420H536.457L532.986 410.546H531.804L528.332 420H529.533ZM530.844 416.307L532.358 412.041H532.432L533.946 416.307H530.844ZM540.46 420.148C541.826 420.148 542.288 419.298 542.528 418.911H542.657V420H543.71V410.546H542.62V414.036H542.528C542.288 413.666 541.863 412.817 540.478 412.817C538.687 412.817 537.45 414.239 537.45 416.473C537.45 418.726 538.687 420.148 540.46 420.148ZM540.608 419.169C539.241 419.169 538.539 417.969 538.539 416.455C538.539 414.959 539.223 413.796 540.608 413.796C541.937 413.796 542.639 414.867 542.639 416.455C542.639 418.061 541.919 419.169 540.608 419.169ZM548.534 420.148C549.901 420.148 550.362 419.298 550.602 418.911H550.732V420H551.784V410.546H550.695V414.036H550.602C550.362 413.666 549.938 412.817 548.553 412.817C546.761 412.817 545.524 414.239 545.524 416.473C545.524 418.726 546.761 420.148 548.534 420.148ZM548.682 419.169C547.315 419.169 546.614 417.969 546.614 416.455C546.614 414.959 547.297 413.796 548.682 413.796C550.011 413.796 550.713 414.867 550.713 416.455C550.713 418.061 549.993 419.169 548.682 419.169ZM565.232 410.546H564.105V417.987H564.013L558.843 410.546H557.735V420H558.88V412.577H558.972L564.124 420H565.232V410.546ZM570.348 420.148C571.788 420.148 572.841 419.428 573.173 418.357L572.121 418.061C571.844 418.8 571.202 419.169 570.348 419.169C569.069 419.169 568.188 418.343 568.137 416.824H573.284V416.362C573.284 413.722 571.715 412.817 570.237 412.817C568.317 412.817 567.043 414.331 567.043 416.51C567.043 418.689 568.298 420.148 570.348 420.148ZM568.137 415.882C568.211 414.779 568.991 413.796 570.237 413.796C571.419 413.796 572.176 414.682 572.176 415.882H568.137ZM576.548 420H577.619L579.17 414.553H579.281L580.832 420H581.903L584.064 412.909H582.919L581.386 418.32H581.312L579.816 412.909H578.653L577.139 418.338H577.065L575.532 412.909H574.388L576.548 420ZM588.791 411.561H591.764V420H592.909V411.561H595.882V410.546H588.791V411.561ZM599.446 420.148C600.886 420.148 601.939 419.428 602.271 418.357L601.218 418.061C600.941 418.8 600.3 419.169 599.446 419.169C598.167 419.169 597.285 418.343 597.234 416.824H602.382V416.362C602.382 413.722 600.812 412.817 599.335 412.817C597.415 412.817 596.14 414.331 596.14 416.51C596.14 418.689 597.396 420.148 599.446 420.148ZM597.234 415.882C597.308 414.779 598.089 413.796 599.335 413.796C600.517 413.796 601.274 414.682 601.274 415.882H597.234ZM604.039 420H605.129V415.513C605.129 414.553 605.886 413.851 606.92 413.851C607.211 413.851 607.511 413.906 607.585 413.925V412.817C607.46 412.808 607.174 412.798 607.012 412.798C606.163 412.798 605.424 413.278 605.166 413.98H605.092V412.909H604.039V420ZM608.876 420H609.966V415.568C609.966 414.53 610.723 413.796 611.572 413.796C612.398 413.796 612.975 414.336 612.975 415.144V420H614.083V415.384C614.083 414.47 614.656 413.796 615.653 413.796C616.429 413.796 617.093 414.206 617.093 415.254V420H618.183V415.254C618.183 413.588 617.287 412.817 616.022 412.817C615.007 412.817 614.263 413.283 613.899 414.017H613.825C613.474 413.26 612.855 412.817 611.923 412.817C611 412.817 610.316 413.26 610.021 414.017H609.929V412.909H608.876V420ZM620.175 420H621.264V412.909H620.175V420ZM620.729 411.727C621.154 411.727 621.504 411.395 621.504 410.989C621.504 410.582 621.154 410.25 620.729 410.25C620.304 410.25 619.953 410.582 619.953 410.989C619.953 411.395 620.304 411.727 620.729 411.727ZM624.349 415.734C624.349 414.497 625.116 413.796 626.159 413.796C627.17 413.796 627.784 414.456 627.784 415.568V420H628.873V415.494C628.873 413.685 627.909 412.817 626.473 412.817C625.402 412.817 624.737 413.297 624.405 414.017H624.312V412.909H623.26V420H624.349V415.734ZM632.951 420.166C634.188 420.166 634.835 419.501 635.056 419.04H635.112V420H636.201V415.328C636.201 413.075 634.484 412.817 633.579 412.817C632.508 412.817 631.289 413.186 630.735 414.479L631.769 414.848C632.009 414.331 632.577 413.777 633.616 413.777C634.618 413.777 635.112 414.308 635.112 415.217V415.254C635.112 415.781 634.576 415.734 633.283 415.901C631.968 416.071 630.532 416.362 630.532 417.987C630.532 419.372 631.603 420.166 632.951 420.166ZM633.117 419.188C632.249 419.188 631.621 418.8 631.621 418.043C631.621 417.212 632.379 416.953 633.228 416.842C633.69 416.787 634.927 416.658 635.112 416.436V417.433C635.112 418.32 634.41 419.188 633.117 419.188ZM639.279 410.546H638.19V420H639.279V410.546Z" fill="#E5E5E5"/>
<path d="M497.057 451H502.17V450.063H498.114V442.273H497.057V451ZM505.717 451.153C506.859 451.153 507.455 450.54 507.66 450.114H507.711V451H508.717V446.688C508.717 444.608 507.131 444.369 506.296 444.369C505.307 444.369 504.182 444.71 503.671 445.903L504.626 446.244C504.847 445.767 505.371 445.256 506.33 445.256C507.255 445.256 507.711 445.746 507.711 446.585V446.619C507.711 447.105 507.217 447.063 506.023 447.216C504.809 447.374 503.484 447.642 503.484 449.142C503.484 450.421 504.472 451.153 505.717 451.153ZM505.87 450.25C505.069 450.25 504.489 449.892 504.489 449.193C504.489 448.426 505.188 448.188 505.972 448.085C506.398 448.034 507.54 447.915 507.711 447.71V448.631C507.711 449.449 507.063 450.25 505.87 450.25ZM511.086 453.455C511.993 453.455 512.632 452.973 513.012 451.955L515.79 444.455H514.699L512.892 449.671H512.824L511.017 444.455H509.926L512.347 451.034L512.159 451.546C511.793 452.543 511.341 452.636 510.608 452.449L510.353 453.335C510.455 453.386 510.745 453.455 511.086 453.455ZM519.662 451.136C521.435 451.136 522.628 449.79 522.628 447.761C522.628 445.716 521.435 444.369 519.662 444.369C517.889 444.369 516.696 445.716 516.696 447.761C516.696 449.79 517.889 451.136 519.662 451.136ZM519.662 450.233C518.316 450.233 517.702 449.074 517.702 447.761C517.702 446.449 518.316 445.273 519.662 445.273C521.009 445.273 521.622 446.449 521.622 447.761C521.622 449.074 521.009 450.233 519.662 450.233ZM528.408 448.324C528.408 449.551 527.471 450.114 526.721 450.114C525.886 450.114 525.289 449.5 525.289 448.546V444.455H524.283V448.614C524.283 450.284 525.17 451.085 526.397 451.085C527.386 451.085 528.033 450.557 528.34 449.892H528.408V451H529.414V444.455H528.408V448.324ZM534.223 444.455H532.825V442.886H531.819V444.455H530.83V445.307H531.819V449.398C531.819 450.54 532.74 451.085 533.592 451.085C533.967 451.085 534.205 451.017 534.342 450.966L534.137 450.063C534.052 450.08 533.916 450.114 533.694 450.114C533.251 450.114 532.825 449.977 532.825 449.125V445.307H534.223V444.455Z" fill="#808080"/>
<path d="M524.25 471.083C524.25 470.807 524.026 470.583 523.75 470.583C523.473 470.583 523.25 470.807 523.25 471.083L524.25 471.083ZM523.25 482.917C523.25 483.193 523.473 483.417 523.75 483.417C524.026 483.417 524.25 483.193 524.25 482.917L523.25 482.917ZM523.417 471.083C523.417 470.807 523.193 470.583 522.917 470.583C522.641 470.583 522.417 470.807 522.417 471.083L523.417 471.083ZM522.417 482.917C522.417 483.193 522.641 483.417 522.917 483.417C523.193 483.417 523.417 483.193 523.417 482.917L522.417 482.917ZM523.333 471.583H532.667V470.583H523.333V471.583ZM533.417 472.333V481.667H534.417V472.333H533.417ZM532.667 482.417H523.333V483.417H532.667V482.417ZM522.583 481.667V472.333H521.583V481.667H522.583ZM523.333 482.417C522.919 482.417 522.583 482.081 522.583 481.667H521.583C521.583 482.633 522.367 483.417 523.333 483.417V482.417ZM533.417 481.667C533.417 482.081 533.081 482.417 532.667 482.417V483.417C533.633 483.417 534.417 482.633 534.417 481.667H533.417ZM532.667 471.583C533.081 471.583 533.417 471.919 533.417 472.333H534.417C534.417 471.367 533.633 470.583 532.667 470.583V471.583ZM523.333 470.583C522.367 470.583 521.583 471.367 521.583 472.333H522.583C522.583 471.919 522.919 471.583 523.333 471.583V470.583ZM523.25 471.083L523.25 482.917L524.25 482.917L524.25 471.083L523.25 471.083ZM522.417 471.083L522.417 482.917L523.417 482.917L523.417 471.083L522.417 471.083Z" fill="#999999"/>
<path d="M550.315 474.909H551.423C551.373 473.483 550.057 472.416 548.229 472.416C546.419 472.416 544.997 473.469 544.997 475.057C544.997 476.331 545.92 477.088 547.398 477.513L548.561 477.845C549.558 478.122 550.445 478.473 550.445 479.415C550.445 480.449 549.447 481.132 548.136 481.132C547.01 481.132 546.013 480.634 545.92 479.563H544.739C544.849 481.114 546.105 482.166 548.136 482.166C550.315 482.166 551.553 480.966 551.553 479.433C551.553 477.661 549.872 477.088 548.893 476.83L547.933 476.571C547.232 476.386 546.105 476.017 546.105 475.001C546.105 474.097 546.936 473.432 548.192 473.432C549.337 473.432 550.205 473.977 550.315 474.909ZM554.377 477.734C554.377 476.497 555.166 475.796 556.242 475.796C557.267 475.796 557.885 476.442 557.885 477.568V482H558.975V477.494C558.975 475.671 558.005 474.817 556.556 474.817C555.438 474.817 554.801 475.283 554.469 476.017H554.377V472.546H553.287V482H554.377V477.734ZM563.849 482.148C565.769 482.148 567.062 480.689 567.062 478.492C567.062 476.276 565.769 474.817 563.849 474.817C561.928 474.817 560.635 476.276 560.635 478.492C560.635 480.689 561.928 482.148 563.849 482.148ZM563.849 481.169C562.39 481.169 561.725 479.913 561.725 478.492C561.725 477.07 562.39 475.796 563.849 475.796C565.307 475.796 565.972 477.07 565.972 478.492C565.972 479.913 565.307 481.169 563.849 481.169ZM570.09 482H571.161L572.712 476.553H572.823L574.374 482H575.445L577.606 474.909H576.461L574.928 480.32H574.854L573.358 474.909H572.195L570.681 480.338H570.607L569.074 474.909H567.93L570.09 482ZM582.85 482H583.995V477.771H588.094V476.756H583.995V473.561H588.519V472.546H582.85V482ZM590.332 482H591.422V474.909H590.332V482ZM590.886 473.727C591.311 473.727 591.662 473.395 591.662 472.989C591.662 472.582 591.311 472.25 590.886 472.25C590.461 472.25 590.111 472.582 590.111 472.989C590.111 473.395 590.461 473.727 590.886 473.727ZM594.507 472.546H593.417V482H594.507V472.546ZM599.475 482.148C600.915 482.148 601.968 481.428 602.3 480.357L601.248 480.061C600.971 480.8 600.329 481.169 599.475 481.169C598.196 481.169 597.315 480.343 597.264 478.824H602.411V478.362C602.411 475.722 600.842 474.817 599.364 474.817C597.444 474.817 596.17 476.331 596.17 478.51C596.17 480.689 597.425 482.148 599.475 482.148ZM597.264 477.882C597.338 476.779 598.118 475.796 599.364 475.796C600.546 475.796 601.303 476.682 601.303 477.882H597.264ZM609.091 476.497C608.75 475.491 607.983 474.817 606.58 474.817C605.084 474.817 603.976 475.666 603.976 476.867C603.976 477.845 604.558 478.501 605.86 478.805L607.041 479.082C607.757 479.249 608.094 479.59 608.094 480.08C608.094 480.689 607.448 481.188 606.432 481.188C605.541 481.188 604.983 480.804 604.789 480.043L603.755 480.301C604.008 481.506 605.001 482.148 606.451 482.148C608.099 482.148 609.22 481.248 609.22 480.024C609.22 479.036 608.602 478.413 607.337 478.104L606.284 477.845C605.444 477.637 605.066 477.356 605.066 476.811C605.066 476.202 605.712 475.759 606.58 475.759C607.531 475.759 607.923 476.285 608.112 476.774L609.091 476.497Z" fill="#E5E5E5"/>
<path d="M524.25 503.083C524.25 502.807 524.026 502.583 523.75 502.583C523.473 502.583 523.25 502.807 523.25 503.083L524.25 503.083ZM523.25 514.917C523.25 515.193 523.473 515.417 523.75 515.417C524.026 515.417 524.25 515.193 524.25 514.917L523.25 514.917ZM523.417 503.083C523.417 502.807 523.193 502.583 522.917 502.583C522.641 502.583 522.417 502.807 522.417 503.083L523.417 503.083ZM522.417 514.917C522.417 515.193 522.641 515.417 522.917 515.417C523.193 515.417 523.417 515.193 523.417 514.917L522.417 514.917ZM523.333 503.583H532.667V502.583H523.333V503.583ZM533.417 504.333V513.667H534.417V504.333H533.417ZM532.667 514.417H523.333V515.417H532.667V514.417ZM522.583 513.667V504.333H521.583V513.667H522.583ZM523.333 514.417C522.919 514.417 522.583 514.081 522.583 513.667H521.583C521.583 514.633 522.367 515.417 523.333 515.417V514.417ZM533.417 513.667C533.417 514.081 533.081 514.417 532.667 514.417V515.417C533.633 515.417 534.417 514.633 534.417 513.667H533.417ZM532.667 503.583C533.081 503.583 533.417 503.919 533.417 504.333H534.417C534.417 503.367 533.633 502.583 532.667 502.583V503.583ZM523.333 502.583C522.367 502.583 521.583 503.367 521.583 504.333H522.583C522.583 503.919 522.919 503.583 523.333 503.583V502.583ZM523.25 503.083L523.25 514.917L524.25 514.917L524.25 503.083L523.25 503.083ZM522.417 503.083L522.417 514.917L523.417 514.917L523.417 503.083L522.417 503.083Z" fill="#999999"/>
<path d="M550.315 506.909H551.423C551.373 505.483 550.057 504.416 548.229 504.416C546.419 504.416 544.997 505.469 544.997 507.057C544.997 508.331 545.92 509.088 547.398 509.513L548.561 509.845C549.558 510.122 550.445 510.473 550.445 511.415C550.445 512.449 549.447 513.132 548.136 513.132C547.01 513.132 546.013 512.634 545.92 511.563H544.739C544.849 513.114 546.105 514.166 548.136 514.166C550.315 514.166 551.553 512.966 551.553 511.433C551.553 509.661 549.872 509.088 548.893 508.83L547.933 508.571C547.232 508.386 546.105 508.017 546.105 507.001C546.105 506.097 546.936 505.432 548.192 505.432C549.337 505.432 550.205 505.977 550.315 506.909ZM554.377 509.734C554.377 508.497 555.166 507.796 556.242 507.796C557.267 507.796 557.885 508.442 557.885 509.568V514H558.975V509.494C558.975 507.671 558.005 506.817 556.556 506.817C555.438 506.817 554.801 507.283 554.469 508.017H554.377V504.546H553.287V514H554.377V509.734ZM563.849 514.148C565.769 514.148 567.062 512.689 567.062 510.492C567.062 508.276 565.769 506.817 563.849 506.817C561.928 506.817 560.635 508.276 560.635 510.492C560.635 512.689 561.928 514.148 563.849 514.148ZM563.849 513.169C562.39 513.169 561.725 511.913 561.725 510.492C561.725 509.07 562.39 507.796 563.849 507.796C565.307 507.796 565.972 509.07 565.972 510.492C565.972 511.913 565.307 513.169 563.849 513.169ZM570.09 514H571.161L572.712 508.553H572.823L574.374 514H575.445L577.606 506.909H576.461L574.928 512.32H574.854L573.358 506.909H572.195L570.681 512.338H570.607L569.074 506.909H567.93L570.09 514ZM589.313 507.5H590.495C590.144 505.672 588.611 504.416 586.617 504.416C584.193 504.416 582.481 506.281 582.481 509.273C582.481 512.264 584.18 514.129 586.691 514.129C588.944 514.129 590.55 512.629 590.55 510.288V509.273H586.949V510.288H589.442C589.41 511.987 588.293 513.058 586.691 513.058C584.937 513.058 583.589 511.729 583.589 509.273C583.589 506.817 584.937 505.487 586.617 505.487C587.983 505.487 588.911 506.258 589.313 507.5ZM592.808 514H593.897V506.909H592.808V514ZM593.362 505.727C593.786 505.727 594.137 505.395 594.137 504.989C594.137 504.582 593.786 504.25 593.362 504.25C592.937 504.25 592.586 504.582 592.586 504.989C592.586 505.395 592.937 505.727 593.362 505.727ZM598.976 506.909H597.462V505.21H596.373V506.909H595.302V507.832H596.373V512.264C596.373 513.501 597.37 514.092 598.293 514.092C598.699 514.092 598.958 514.019 599.106 513.963L598.884 512.984C598.792 513.003 598.644 513.04 598.404 513.04C597.924 513.04 597.462 512.892 597.462 511.969V507.832H598.976V506.909ZM612.027 507.5C611.676 505.561 610.125 504.416 608.223 504.416C605.804 504.416 604.05 506.281 604.05 509.273C604.05 512.264 605.804 514.129 608.223 514.129C610.125 514.129 611.676 512.984 612.027 511.046H610.882C610.605 512.357 609.479 513.058 608.223 513.058C606.506 513.058 605.158 511.729 605.158 509.273C605.158 506.817 606.506 505.487 608.223 505.487C609.479 505.487 610.605 506.189 610.882 507.5H612.027ZM614.819 509.734C614.819 508.497 615.608 507.796 616.684 507.796C617.709 507.796 618.328 508.442 618.328 509.568V514H619.417V509.494C619.417 507.671 618.448 506.817 616.998 506.817C615.881 506.817 615.244 507.283 614.911 508.017H614.819V504.546H613.73V514H614.819V509.734ZM623.497 514.166C624.734 514.166 625.38 513.501 625.602 513.04H625.657V514H626.747V509.328C626.747 507.075 625.03 506.817 624.125 506.817C623.054 506.817 621.835 507.186 621.281 508.479L622.315 508.848C622.555 508.331 623.123 507.777 624.162 507.777C625.163 507.777 625.657 508.308 625.657 509.217V509.254C625.657 509.781 625.122 509.734 623.829 509.901C622.514 510.071 621.078 510.362 621.078 511.987C621.078 513.372 622.149 514.166 623.497 514.166ZM623.663 513.188C622.795 513.188 622.167 512.8 622.167 512.043C622.167 511.212 622.924 510.953 623.774 510.842C624.236 510.787 625.473 510.658 625.657 510.436V511.433C625.657 512.32 624.956 513.188 623.663 513.188ZM629.825 509.734C629.825 508.497 630.591 507.796 631.635 507.796C632.646 507.796 633.26 508.456 633.26 509.568V514H634.349V509.494C634.349 507.685 633.384 506.817 631.949 506.817C630.877 506.817 630.213 507.297 629.88 508.017H629.788V506.909H628.735V514H629.825V509.734ZM639.202 516.807C640.901 516.807 642.267 516.031 642.267 514.203V506.909H641.215V508.036H641.104C640.864 507.666 640.421 506.817 639.036 506.817C637.245 506.817 636.008 508.239 636.008 510.418C636.008 512.634 637.3 513.889 639.017 513.889C640.402 513.889 640.846 513.077 641.086 512.689H641.178V514.129C641.178 515.311 640.347 515.847 639.202 515.847C637.914 515.847 637.462 515.168 637.171 514.776L636.303 515.385C636.746 516.128 637.619 516.807 639.202 516.807ZM639.165 512.911C637.799 512.911 637.097 511.876 637.097 510.399C637.097 508.959 637.78 507.796 639.165 507.796C640.495 507.796 641.196 508.867 641.196 510.399C641.196 511.969 640.476 512.911 639.165 512.911ZM647.235 514.148C648.675 514.148 649.728 513.428 650.06 512.357L649.008 512.061C648.731 512.8 648.089 513.169 647.235 513.169C645.956 513.169 645.074 512.343 645.024 510.824H650.171V510.362C650.171 507.722 648.601 506.817 647.124 506.817C645.204 506.817 643.929 508.331 643.929 510.51C643.929 512.689 645.185 514.148 647.235 514.148ZM645.024 509.882C645.097 508.779 645.878 507.796 647.124 507.796C648.306 507.796 649.063 508.682 649.063 509.882H645.024ZM656.851 508.497C656.509 507.491 655.743 506.817 654.34 506.817C652.844 506.817 651.736 507.666 651.736 508.867C651.736 509.845 652.318 510.501 653.619 510.805L654.801 511.082C655.517 511.249 655.854 511.59 655.854 512.08C655.854 512.689 655.207 513.188 654.192 513.188C653.301 513.188 652.742 512.804 652.548 512.043L651.514 512.301C651.768 513.506 652.761 514.148 654.21 514.148C655.858 514.148 656.98 513.248 656.98 512.024C656.98 511.036 656.362 510.413 655.097 510.104L654.044 509.845C653.204 509.637 652.825 509.356 652.825 508.811C652.825 508.202 653.472 507.759 654.34 507.759C655.291 507.759 655.683 508.285 655.872 508.774L656.851 508.497Z" fill="#E5E5E5"/>
<path d="M524.25 535.083C524.25 534.807 524.026 534.583 523.75 534.583C523.473 534.583 523.25 534.807 523.25 535.083L524.25 535.083ZM523.25 546.917C523.25 547.193 523.473 547.417 523.75 547.417C524.026 547.417 524.25 547.193 524.25 546.917L523.25 546.917ZM523.417 535.083C523.417 534.807 523.193 534.583 522.917 534.583C522.641 534.583 522.417 534.807 522.417 535.083L523.417 535.083ZM522.417 546.917C522.417 547.193 522.641 547.417 522.917 547.417C523.193 547.417 523.417 547.193 523.417 546.917L522.417 546.917ZM523.333 535.583H532.667V534.583H523.333V535.583ZM533.417 536.333V545.667H534.417V536.333H533.417ZM532.667 546.417H523.333V547.417H532.667V546.417ZM522.583 545.667V536.333H521.583V545.667H522.583ZM523.333 546.417C522.919 546.417 522.583 546.081 522.583 545.667H521.583C521.583 546.633 522.367 547.417 523.333 547.417V546.417ZM533.417 545.667C533.417 546.081 533.081 546.417 532.667 546.417V547.417C533.633 547.417 534.417 546.633 534.417 545.667H533.417ZM532.667 535.583C533.081 535.583 533.417 535.919 533.417 536.333H534.417C534.417 535.367 533.633 534.583 532.667 534.583V535.583ZM523.333 534.583C522.367 534.583 521.583 535.367 521.583 536.333H522.583C522.583 535.919 522.919 535.583 523.333 535.583V534.583ZM523.25 535.083L523.25 546.917L524.25 546.917L524.25 535.083L523.25 535.083ZM522.417 535.083L522.417 546.917L523.417 546.917L523.417 535.083L522.417 535.083Z" fill="#999999"/>
<path d="M550.315 538.909H551.423C551.373 537.483 550.057 536.416 548.229 536.416C546.419 536.416 544.997 537.469 544.997 539.057C544.997 540.331 545.92 541.088 547.398 541.513L548.561 541.845C549.558 542.122 550.445 542.473 550.445 543.415C550.445 544.449 549.447 545.132 548.136 545.132C547.01 545.132 546.013 544.634 545.92 543.563H544.739C544.849 545.114 546.105 546.166 548.136 546.166C550.315 546.166 551.553 544.966 551.553 543.433C551.553 541.661 549.872 541.088 548.893 540.83L547.933 540.571C547.232 540.386 546.105 540.017 546.105 539.001C546.105 538.097 546.936 537.432 548.192 537.432C549.337 537.432 550.205 537.977 550.315 538.909ZM554.377 541.734C554.377 540.497 555.166 539.796 556.242 539.796C557.267 539.796 557.885 540.442 557.885 541.568V546H558.975V541.494C558.975 539.671 558.005 538.817 556.556 538.817C555.438 538.817 554.801 539.283 554.469 540.017H554.377V536.546H553.287V546H554.377V541.734ZM563.849 546.148C565.769 546.148 567.062 544.689 567.062 542.492C567.062 540.276 565.769 538.817 563.849 538.817C561.928 538.817 560.635 540.276 560.635 542.492C560.635 544.689 561.928 546.148 563.849 546.148ZM563.849 545.169C562.39 545.169 561.725 543.913 561.725 542.492C561.725 541.07 562.39 539.796 563.849 539.796C565.307 539.796 565.972 541.07 565.972 542.492C565.972 543.913 565.307 545.169 563.849 545.169ZM570.09 546H571.161L572.712 540.553H572.823L574.374 546H575.445L577.606 538.909H576.461L574.928 544.32H574.854L573.358 538.909H572.195L570.681 544.338H570.607L569.074 538.909H567.93L570.09 546ZM590.458 539.5C590.107 537.561 588.556 536.416 586.654 536.416C584.235 536.416 582.481 538.281 582.481 541.273C582.481 544.264 584.235 546.129 586.654 546.129C588.556 546.129 590.107 544.984 590.458 543.046H589.313C589.036 544.357 587.91 545.058 586.654 545.058C584.937 545.058 583.589 543.729 583.589 541.273C583.589 538.817 584.937 537.487 586.654 537.487C587.91 537.487 589.036 538.189 589.313 539.5H590.458ZM595.041 546.148C596.961 546.148 598.254 544.689 598.254 542.492C598.254 540.276 596.961 538.817 595.041 538.817C593.12 538.817 591.828 540.276 591.828 542.492C591.828 544.689 593.12 546.148 595.041 546.148ZM595.041 545.169C593.582 545.169 592.917 543.913 592.917 542.492C592.917 541.07 593.582 539.796 595.041 539.796C596.5 539.796 597.165 541.07 597.165 542.492C597.165 543.913 596.5 545.169 595.041 545.169ZM602.595 546.148C603.961 546.148 604.423 545.298 604.663 544.911H604.792V546H605.845V536.546H604.755V540.036H604.663C604.423 539.666 603.998 538.817 602.613 538.817C600.822 538.817 599.585 540.239 599.585 542.473C599.585 544.726 600.822 546.148 602.595 546.148ZM602.742 545.169C601.376 545.169 600.674 543.969 600.674 542.455C600.674 540.959 601.357 539.796 602.742 539.796C604.072 539.796 604.774 540.867 604.774 542.455C604.774 544.061 604.053 545.169 602.742 545.169ZM610.964 546.148C612.405 546.148 613.457 545.428 613.79 544.357L612.737 544.061C612.46 544.8 611.818 545.169 610.964 545.169C609.686 545.169 608.804 544.343 608.753 542.824H613.9V542.362C613.9 539.722 612.331 538.817 610.854 538.817C608.933 538.817 607.659 540.331 607.659 542.51C607.659 544.689 608.915 546.148 610.964 546.148ZM608.753 541.882C608.827 540.779 609.607 539.796 610.854 539.796C612.035 539.796 612.792 540.682 612.792 541.882H608.753ZM624.532 538.909H625.64C625.589 537.483 624.274 536.416 622.445 536.416C620.636 536.416 619.214 537.469 619.214 539.057C619.214 540.331 620.137 541.088 621.615 541.513L622.778 541.845C623.775 542.122 624.661 542.473 624.661 543.415C624.661 544.449 623.664 545.132 622.353 545.132C621.227 545.132 620.23 544.634 620.137 543.563H618.955C619.066 545.114 620.322 546.166 622.353 546.166C624.532 546.166 625.769 544.966 625.769 543.433C625.769 541.661 624.089 541.088 623.11 540.83L622.15 540.571C621.448 540.386 620.322 540.017 620.322 539.001C620.322 538.097 621.153 537.432 622.409 537.432C623.553 537.432 624.421 537.977 624.532 538.909ZM630.477 546.148C631.917 546.148 632.97 545.428 633.302 544.357L632.25 544.061C631.973 544.8 631.331 545.169 630.477 545.169C629.198 545.169 628.316 544.343 628.266 542.824H633.413V542.362C633.413 539.722 631.843 538.817 630.366 538.817C628.446 538.817 627.172 540.331 627.172 542.51C627.172 544.689 628.427 546.148 630.477 546.148ZM628.266 541.882C628.34 540.779 629.12 539.796 630.366 539.796C631.548 539.796 632.305 540.682 632.305 541.882H628.266ZM637.157 546.166C638.394 546.166 639.041 545.501 639.262 545.04H639.318V546H640.407V541.328C640.407 539.075 638.69 538.817 637.785 538.817C636.714 538.817 635.495 539.186 634.941 540.479L635.975 540.848C636.215 540.331 636.783 539.777 637.822 539.777C638.824 539.777 639.318 540.308 639.318 541.217V541.254C639.318 541.781 638.782 541.734 637.489 541.901C636.174 542.071 634.738 542.362 634.738 543.987C634.738 545.372 635.809 546.166 637.157 546.166ZM637.323 545.188C636.455 545.188 635.828 544.8 635.828 544.043C635.828 543.212 636.585 542.953 637.434 542.842C637.896 542.787 639.133 542.658 639.318 542.436V543.433C639.318 544.32 638.616 545.188 637.323 545.188ZM642.396 546H643.485V541.513C643.485 540.553 644.242 539.851 645.276 539.851C645.567 539.851 645.867 539.906 645.941 539.925V538.817C645.816 538.808 645.53 538.798 645.369 538.798C644.519 538.798 643.781 539.278 643.522 539.98H643.448V538.909H642.396V546ZM649.897 546.148C651.467 546.148 652.501 545.188 652.686 543.932H651.596C651.393 544.707 650.747 545.169 649.897 545.169C648.605 545.169 647.774 544.098 647.774 542.455C647.774 540.848 648.623 539.796 649.897 539.796C650.858 539.796 651.43 540.386 651.596 541.033H652.686C652.501 539.703 651.375 538.817 649.879 538.817C647.958 538.817 646.684 540.331 646.684 542.492C646.684 544.615 647.903 546.148 649.897 546.148ZM655.368 541.734C655.368 540.497 656.157 539.796 657.233 539.796C658.258 539.796 658.876 540.442 658.876 541.568V546H659.966V541.494C659.966 539.671 658.996 538.817 657.547 538.817C656.43 538.817 655.793 539.283 655.46 540.017H655.368V536.546H654.278V546H655.368V541.734Z" fill="#E5E5E5"/>
<path d="M524.25 567.083C524.25 566.807 524.026 566.583 523.75 566.583C523.473 566.583 523.25 566.807 523.25 567.083L524.25 567.083ZM523.25 578.917C523.25 579.193 523.473 579.417 523.75 579.417C524.026 579.417 524.25 579.193 524.25 578.917L523.25 578.917ZM523.417 567.083C523.417 566.807 523.193 566.583 522.917 566.583C522.641 566.583 522.417 566.807 522.417 567.083L523.417 567.083ZM522.417 578.917C522.417 579.193 522.641 579.417 522.917 579.417C523.193 579.417 523.417 579.193 523.417 578.917L522.417 578.917ZM523.333 567.583H532.667V566.583H523.333V567.583ZM533.417 568.333V577.667H534.417V568.333H533.417ZM532.667 578.417H523.333V579.417H532.667V578.417ZM522.583 577.667V568.333H521.583V577.667H522.583ZM523.333 578.417C522.919 578.417 522.583 578.081 522.583 577.667H521.583C521.583 578.633 522.367 579.417 523.333 579.417V578.417ZM533.417 577.667C533.417 578.081 533.081 578.417 532.667 578.417V579.417C533.633 579.417 534.417 578.633 534.417 577.667H533.417ZM532.667 567.583C533.081 567.583 533.417 567.919 533.417 568.333H534.417C534.417 567.367 533.633 566.583 532.667 566.583V567.583ZM523.333 566.583C522.367 566.583 521.583 567.367 521.583 568.333H522.583C522.583 567.919 522.919 567.583 523.333 567.583V566.583ZM523.25 567.083L523.25 578.917L524.25 578.917L524.25 567.083L523.25 567.083ZM522.417 567.083L522.417 578.917L523.417 578.917L523.417 567.083L522.417 567.083Z" fill="#999999"/>
<path d="M545.145 568.546V578H546.216V570.817H546.308L549.263 578H550.297L553.251 570.817H553.344V578H554.415V568.546H553.048L549.835 576.394H549.724L546.511 568.546H545.145ZM558.649 578.166C559.886 578.166 560.533 577.501 560.754 577.04H560.81V578H561.899V573.328C561.899 571.075 560.182 570.817 559.277 570.817C558.206 570.817 556.987 571.186 556.433 572.479L557.467 572.848C557.707 572.331 558.275 571.777 559.314 571.777C560.316 571.777 560.81 572.308 560.81 573.217V573.254C560.81 573.781 560.274 573.734 558.982 573.901C557.666 574.071 556.23 574.362 556.23 575.987C556.23 577.372 557.301 578.166 558.649 578.166ZM558.815 577.188C557.948 577.188 557.32 576.8 557.32 576.043C557.32 575.212 558.077 574.953 558.926 574.842C559.388 574.787 560.625 574.658 560.81 574.436V575.433C560.81 576.32 560.108 577.188 558.815 577.188ZM564.7 570.909H563.445L565.697 574.455L563.445 578H564.7L566.399 575.249L568.098 578H569.354L567.064 574.455L569.354 570.909H568.098L566.399 573.808L564.7 570.909ZM570.908 578H571.998V570.909H570.908V578ZM571.462 569.727C571.887 569.727 572.238 569.395 572.238 568.989C572.238 568.582 571.887 568.25 571.462 568.25C571.038 568.25 570.687 568.582 570.687 568.989C570.687 569.395 571.038 569.727 571.462 569.727ZM573.993 578H575.083V573.568C575.083 572.53 575.84 571.796 576.689 571.796C577.516 571.796 578.093 572.336 578.093 573.144V578H579.201V573.384C579.201 572.47 579.773 571.796 580.77 571.796C581.546 571.796 582.211 572.206 582.211 573.254V578H583.3V573.254C583.3 571.588 582.404 570.817 581.14 570.817C580.124 570.817 579.381 571.283 579.016 572.017H578.942C578.591 571.26 577.973 570.817 577.04 570.817C576.117 570.817 575.434 571.26 575.138 572.017H575.046V570.909H573.993V578ZM585.292 578H586.382V570.909H585.292V578ZM585.846 569.727C586.271 569.727 586.622 569.395 586.622 568.989C586.622 568.582 586.271 568.25 585.846 568.25C585.421 568.25 585.07 568.582 585.07 568.989C585.07 569.395 585.421 569.727 585.846 569.727ZM593.4 572.497C593.058 571.491 592.292 570.817 590.888 570.817C589.393 570.817 588.285 571.666 588.285 572.867C588.285 573.845 588.866 574.501 590.168 574.805L591.35 575.082C592.066 575.249 592.403 575.59 592.403 576.08C592.403 576.689 591.756 577.188 590.741 577.188C589.85 577.188 589.291 576.804 589.097 576.043L588.063 576.301C588.317 577.506 589.31 578.148 590.759 578.148C592.407 578.148 593.529 577.248 593.529 576.024C593.529 575.036 592.91 574.413 591.646 574.104L590.593 573.845C589.753 573.637 589.374 573.356 589.374 572.811C589.374 572.202 590.021 571.759 590.888 571.759C591.839 571.759 592.232 572.285 592.421 572.774L593.4 572.497ZM598.142 578.148C599.582 578.148 600.635 577.428 600.967 576.357L599.915 576.061C599.638 576.8 598.996 577.169 598.142 577.169C596.863 577.169 595.982 576.343 595.931 574.824H601.078V574.362C601.078 571.722 599.509 570.817 598.031 570.817C596.111 570.817 594.837 572.331 594.837 574.51C594.837 576.689 596.092 578.148 598.142 578.148ZM595.931 573.882C596.005 572.779 596.785 571.796 598.031 571.796C599.213 571.796 599.97 572.682 599.97 573.882H595.931ZM609.457 578C612.338 578 613.963 576.209 613.963 573.254C613.963 570.318 612.338 568.546 609.586 568.546H606.539V578H609.457ZM607.684 576.984V569.561H609.512C611.728 569.561 612.855 570.965 612.855 573.254C612.855 575.563 611.728 576.984 609.383 576.984H607.684ZM618.708 578.148C620.149 578.148 621.201 577.428 621.534 576.357L620.481 576.061C620.204 576.8 619.562 577.169 618.708 577.169C617.43 577.169 616.548 576.343 616.497 574.824H621.645V574.362C621.645 571.722 620.075 570.817 618.598 570.817C616.677 570.817 615.403 572.331 615.403 574.51C615.403 576.689 616.659 578.148 618.708 578.148ZM616.497 573.882C616.571 572.779 617.351 571.796 618.598 571.796C619.779 571.796 620.537 572.682 620.537 573.882H616.497ZM628.884 570.909H627.703L625.745 576.56H625.671L623.714 570.909H622.532L625.154 578H626.262L628.884 570.909ZM633.406 570.909H631.892V569.21H630.802V570.909H629.731V571.832H630.802V576.264C630.802 577.501 631.8 578.092 632.723 578.092C633.129 578.092 633.388 578.019 633.535 577.963L633.314 576.984C633.222 577.003 633.074 577.04 632.834 577.04C632.354 577.04 631.892 576.892 631.892 575.969V571.832H633.406V570.909ZM637.85 578.148C639.77 578.148 641.063 576.689 641.063 574.492C641.063 572.276 639.77 570.817 637.85 570.817C635.929 570.817 634.636 572.276 634.636 574.492C634.636 576.689 635.929 578.148 637.85 578.148ZM637.85 577.169C636.391 577.169 635.726 575.913 635.726 574.492C635.726 573.07 636.391 571.796 637.85 571.796C639.308 571.796 639.973 573.07 639.973 574.492C639.973 575.913 639.308 577.169 637.85 577.169ZM645.606 578.148C647.527 578.148 648.819 576.689 648.819 574.492C648.819 572.276 647.527 570.817 645.606 570.817C643.686 570.817 642.393 572.276 642.393 574.492C642.393 576.689 643.686 578.148 645.606 578.148ZM645.606 577.169C644.148 577.169 643.483 575.913 643.483 574.492C643.483 573.07 644.148 571.796 645.606 571.796C647.065 571.796 647.73 573.07 647.73 574.492C647.73 575.913 647.065 577.169 645.606 577.169ZM651.572 568.546H650.483V578H651.572V568.546ZM658.59 572.497C658.249 571.491 657.482 570.817 656.079 570.817C654.583 570.817 653.475 571.666 653.475 572.867C653.475 573.845 654.057 574.501 655.359 574.805L656.54 575.082C657.256 575.249 657.593 575.59 657.593 576.08C657.593 576.689 656.947 577.188 655.931 577.188C655.04 577.188 654.482 576.804 654.288 576.043L653.254 576.301C653.507 577.506 654.5 578.148 655.95 578.148C657.598 578.148 658.719 577.248 658.719 576.024C658.719 575.036 658.101 574.413 656.836 574.104L655.783 573.845C654.943 573.637 654.565 573.356 654.565 572.811C654.565 572.202 655.211 571.759 656.079 571.759C657.03 571.759 657.422 572.285 657.612 572.774L658.59 572.497Z" fill="#E5E5E5"/>
<path d="M524.25 599.083C524.25 598.807 524.026 598.583 523.75 598.583C523.473 598.583 523.25 598.807 523.25 599.083L524.25 599.083ZM523.25 610.917C523.25 611.193 523.473 611.417 523.75 611.417C524.026 611.417 524.25 611.193 524.25 610.917L523.25 610.917ZM523.417 599.083C523.417 598.807 523.193 598.583 522.917 598.583C522.641 598.583 522.417 598.807 522.417 599.083L523.417 599.083ZM522.417 610.917C522.417 611.193 522.641 611.417 522.917 611.417C523.193 611.417 523.417 611.193 523.417 610.917L522.417 610.917ZM523.333 599.583H532.667V598.583H523.333V599.583ZM533.417 600.333V609.667H534.417V600.333H533.417ZM532.667 610.417H523.333V611.417H532.667V610.417ZM522.583 609.667V600.333H521.583V609.667H522.583ZM523.333 610.417C522.919 610.417 522.583 610.081 522.583 609.667H521.583C521.583 610.633 522.367 611.417 523.333 611.417V610.417ZM533.417 609.667C533.417 610.081 533.081 610.417 532.667 610.417V611.417C533.633 611.417 534.417 610.633 534.417 609.667H533.417ZM532.667 599.583C533.081 599.583 533.417 599.919 533.417 600.333H534.417C534.417 599.367 533.633 598.583 532.667 598.583V599.583ZM523.333 598.583C522.367 598.583 521.583 599.367 521.583 600.333H522.583C522.583 599.919 522.919 599.583 523.333 599.583V598.583ZM523.25 599.083L523.25 610.917L524.25 610.917L524.25 599.083L523.25 599.083ZM522.417 599.083L522.417 610.917L523.417 610.917L523.417 599.083L522.417 599.083Z" fill="#999999"/>
<path d="M545.145 600.546V610H546.216V602.817H546.308L549.263 610H550.297L553.251 602.817H553.344V610H554.415V600.546H553.048L549.835 608.394H549.724L546.511 600.546H545.145ZM558.649 610.166C559.886 610.166 560.533 609.501 560.754 609.04H560.81V610H561.899V605.328C561.899 603.075 560.182 602.817 559.277 602.817C558.206 602.817 556.987 603.186 556.433 604.479L557.467 604.848C557.707 604.331 558.275 603.777 559.314 603.777C560.316 603.777 560.81 604.308 560.81 605.217V605.254C560.81 605.781 560.274 605.734 558.982 605.901C557.666 606.071 556.23 606.362 556.23 607.987C556.23 609.372 557.301 610.166 558.649 610.166ZM558.815 609.188C557.948 609.188 557.32 608.8 557.32 608.043C557.32 607.212 558.077 606.953 558.926 606.842C559.388 606.787 560.625 606.658 560.81 606.436V607.433C560.81 608.32 560.108 609.188 558.815 609.188ZM564.7 602.909H563.445L565.697 606.455L563.445 610H564.7L566.399 607.249L568.098 610H569.354L567.064 606.455L569.354 602.909H568.098L566.399 605.808L564.7 602.909ZM570.908 610H571.998V602.909H570.908V610ZM571.462 601.727C571.887 601.727 572.238 601.395 572.238 600.989C572.238 600.582 571.887 600.25 571.462 600.25C571.038 600.25 570.687 600.582 570.687 600.989C570.687 601.395 571.038 601.727 571.462 601.727ZM573.993 610H575.083V605.568C575.083 604.53 575.84 603.796 576.689 603.796C577.516 603.796 578.093 604.336 578.093 605.144V610H579.201V605.384C579.201 604.47 579.773 603.796 580.77 603.796C581.546 603.796 582.211 604.206 582.211 605.254V610H583.3V605.254C583.3 603.588 582.404 602.817 581.14 602.817C580.124 602.817 579.381 603.283 579.016 604.017H578.942C578.591 603.26 577.973 602.817 577.04 602.817C576.117 602.817 575.434 603.26 575.138 604.017H575.046V602.909H573.993V610ZM585.292 610H586.382V602.909H585.292V610ZM585.846 601.727C586.271 601.727 586.622 601.395 586.622 600.989C586.622 600.582 586.271 600.25 585.846 600.25C585.421 600.25 585.07 600.582 585.07 600.989C585.07 601.395 585.421 601.727 585.846 601.727ZM593.4 604.497C593.058 603.491 592.292 602.817 590.888 602.817C589.393 602.817 588.285 603.666 588.285 604.867C588.285 605.845 588.866 606.501 590.168 606.805L591.35 607.082C592.066 607.249 592.403 607.59 592.403 608.08C592.403 608.689 591.756 609.188 590.741 609.188C589.85 609.188 589.291 608.804 589.097 608.043L588.063 608.301C588.317 609.506 589.31 610.148 590.759 610.148C592.407 610.148 593.529 609.248 593.529 608.024C593.529 607.036 592.91 606.413 591.646 606.104L590.593 605.845C589.753 605.637 589.374 605.356 589.374 604.811C589.374 604.202 590.021 603.759 590.888 603.759C591.839 603.759 592.232 604.285 592.421 604.774L593.4 604.497ZM598.142 610.148C599.582 610.148 600.635 609.428 600.967 608.357L599.915 608.061C599.638 608.8 598.996 609.169 598.142 609.169C596.863 609.169 595.982 608.343 595.931 606.824H601.078V606.362C601.078 603.722 599.509 602.817 598.031 602.817C596.111 602.817 594.837 604.331 594.837 606.51C594.837 608.689 596.092 610.148 598.142 610.148ZM595.931 605.882C596.005 604.779 596.785 603.796 598.031 603.796C599.213 603.796 599.97 604.682 599.97 605.882H595.931ZM614.147 603.5C613.797 601.561 612.245 600.416 610.343 600.416C607.924 600.416 606.17 602.281 606.17 605.273C606.17 608.264 607.924 610.129 610.343 610.129C612.245 610.129 613.797 608.984 614.147 607.046H613.002C612.725 608.357 611.599 609.058 610.343 609.058C608.626 609.058 607.278 607.729 607.278 605.273C607.278 602.817 608.626 601.487 610.343 601.487C611.599 601.487 612.725 602.189 613.002 603.5H614.147ZM618.73 610.148C620.651 610.148 621.943 608.689 621.943 606.492C621.943 604.276 620.651 602.817 618.73 602.817C616.81 602.817 615.517 604.276 615.517 606.492C615.517 608.689 616.81 610.148 618.73 610.148ZM618.73 609.169C617.272 609.169 616.607 607.913 616.607 606.492C616.607 605.07 617.272 603.796 618.73 603.796C620.189 603.796 620.854 605.07 620.854 606.492C620.854 607.913 620.189 609.169 618.73 609.169ZM626.284 610.148C627.651 610.148 628.112 609.298 628.352 608.911H628.482V610H629.534V600.546H628.445V604.036H628.352C628.112 603.666 627.688 602.817 626.303 602.817C624.511 602.817 623.274 604.239 623.274 606.473C623.274 608.726 624.511 610.148 626.284 610.148ZM626.432 609.169C625.065 609.169 624.364 607.969 624.364 606.455C624.364 604.959 625.047 603.796 626.432 603.796C627.761 603.796 628.463 604.867 628.463 606.455C628.463 608.061 627.743 609.169 626.432 609.169ZM634.654 610.148C636.094 610.148 637.147 609.428 637.479 608.357L636.426 608.061C636.15 608.8 635.508 609.169 634.654 609.169C633.375 609.169 632.493 608.343 632.442 606.824H637.59V606.362C637.59 603.722 636.02 602.817 634.543 602.817C632.623 602.817 631.348 604.331 631.348 606.51C631.348 608.689 632.604 610.148 634.654 610.148ZM632.442 605.882C632.516 604.779 633.297 603.796 634.543 603.796C635.725 603.796 636.482 604.682 636.482 605.882H632.442ZM643.051 610H648.831V608.984H644.196V605.771H648.462V604.756H644.196V601.561H648.757V600.546H643.051V610ZM653.35 610.148C654.717 610.148 655.179 609.298 655.419 608.911H655.548V610H656.6V600.546H655.511V604.036H655.419C655.179 603.666 654.754 602.817 653.369 602.817C651.578 602.817 650.341 604.239 650.341 606.473C650.341 608.726 651.578 610.148 653.35 610.148ZM653.498 609.169C652.132 609.169 651.43 607.969 651.43 606.455C651.43 604.959 652.113 603.796 653.498 603.796C654.828 603.796 655.529 604.867 655.529 606.455C655.529 608.061 654.809 609.169 653.498 609.169ZM658.747 610H659.837V602.909H658.747V610ZM659.301 601.727C659.726 601.727 660.077 601.395 660.077 600.989C660.077 600.582 659.726 600.25 659.301 600.25C658.876 600.25 658.526 600.582 658.526 600.989C658.526 601.395 658.876 601.727 659.301 601.727ZM664.916 602.909H663.402V601.21H662.312V602.909H661.241V603.832H662.312V608.264C662.312 609.501 663.309 610.092 664.233 610.092C664.639 610.092 664.897 610.019 665.045 609.963L664.824 608.984C664.731 609.003 664.584 609.04 664.343 609.04C663.863 609.04 663.402 608.892 663.402 607.969V603.832H664.916V602.909ZM669.359 610.148C671.28 610.148 672.572 608.689 672.572 606.492C672.572 604.276 671.28 602.817 669.359 602.817C667.439 602.817 666.146 604.276 666.146 606.492C666.146 608.689 667.439 610.148 669.359 610.148ZM669.359 609.169C667.9 609.169 667.236 607.913 667.236 606.492C667.236 605.07 667.9 603.796 669.359 603.796C670.818 603.796 671.483 605.07 671.483 606.492C671.483 607.913 670.818 609.169 669.359 609.169ZM674.235 610H675.325V605.513C675.325 604.553 676.082 603.851 677.116 603.851C677.407 603.851 677.707 603.906 677.781 603.925V602.817C677.656 602.808 677.37 602.798 677.208 602.798C676.359 602.798 675.62 603.278 675.362 603.98H675.288V602.909H674.235V610Z" fill="#E5E5E5"/>
</g>
<defs>
<filter id="filter0_dd_67_4832" x="463" y="195" width="514" height="431" filterUnits="userSpaceOnUse" color-interpolation-filters="sRGB">
<feFlood flood-opacity="0" result="BackgroundImageFix"/>
<feColorMatrix in="SourceAlpha" type="matrix" values="0 0 0 0 0 0 0 0 0 0 0 0 0 0 0 0 0 0 127 0" result="hardAlpha"/>
<feOffset dy="5"/>
<feGaussianBlur stdDeviation="8.5"/>
<feColorMatrix type="matrix" values="0 0 0 0 0 0 0 0 0 0 0 0 0 0 0 0 0 0 0.2 0"/>
<feBlend mode="normal" in2="BackgroundImageFix" result="effect1_dropShadow_67_4832"/>
<feColorMatrix in="SourceAlpha" type="matrix" values="0 0 0 0 0 0 0 0 0 0 0 0 0 0 0 0 0 0 127 0" result="hardAlpha"/>
<feOffset dy="2"/>
<feGaussianBlur stdDeviation="3.5"/>
<feColorMatrix type="matrix" values="0 0 0 0 0 0 0 0 0 0 0 0 0 0 0 0 0 0 0.15 0"/>
<feBlend mode="normal" in2="effect1_dropShadow_67_4832" result="effect2_dropShadow_67_4832"/>
<feBlend mode="normal" in="SourceGraphic" in2="effect2_dropShadow_67_4832" result="shape"/>
</filter>
<clipPath id="clip0_67_4832">
<rect width="480" height="397" fill="white" transform="translate(480 207)"/>
</clipPath>
</defs>
</svg>