<svg xmlns="http://www.w3.org/2000/svg" xmlns:xlink="http://www.w3.org/1999/xlink" xmlns:v="https://vecta.io/nano" width="1440" height="810" viewBox="0 0 1440 810" fill="none"><style><![CDATA[.C{animation:animation1 6s 1s infinite forwards}.B{animation:animation2 6s 1s infinite forwards}.A{animation:animation3 6s 1s infinite forwards}@keyframes animation1{0%{opacity:0}69%{opacity:0}70%{opacity:1}79%{opacity:1}80%{opacity:0}100%{opacity:0}} @keyframes animation2{0%{opacity:1}70%{opacity:1}71%{opacity:0}79%{opacity:0}80%{opacity:1}89%{opacity:1}90%{opacity:0}99%{opacity:0}100%{opacity:1}} @keyframes animation3{0%{opacity:0}89%{opacity:0}90%{opacity:1}99%{opacity:1}100%{opacity:0}}.D{fill:#e5e5e5}.E{stroke:#fff}.F{stroke-linecap:round}.G{fill:#5c5c5c}.H{fill:#373737}.I{color-interpolation-filters:sRGB}.J{flood-opacity:0}.K{fill-opacity:.1}]]></style><g filter="url(#A)"><path transform="translate(1030 45)" d="M0 0h165v160H0z" class="H"/><path opacity=".8" d="M1045.15 69c2.22 0 3.5-1.374 3.5-3.647 0-2.262-1.28-3.626-3.42-3.626h-2.43V69h2.35zm-1.25-.959v-5.355h1.26c1.59 0 2.41.952 2.41 2.667 0 1.722-.82 2.688-2.48 2.688h-1.19zm8.48 1.069c1.19 0 2.03-.586 2.27-1.474l-1-.181c-.19.515-.65.778-1.26.778-.91 0-1.52-.59-1.55-1.641h3.88v-.376c0-1.971-1.18-2.742-2.41-2.742-1.52 0-2.52 1.158-2.52 2.834 0 1.694.98 2.802 2.59 2.802zm-1.53-3.313c.04-.774.6-1.445 1.46-1.445.83 0 1.37.611 1.37 1.445h-2.83zm9.65-2.251h-1.14l-1.38 4.197h-.05l-1.39-4.197h-1.14l1.99 5.455h1.13l1.98-5.455zm.48-.874h2.27V69h1.09v-6.328h2.27v-.945h-5.63v.945zm8.4 6.438c1.53 0 2.54-1.126 2.54-2.812 0-1.698-1.01-2.823-2.54-2.823-1.54 0-2.55 1.126-2.55 2.823 0 1.687 1.01 2.813 2.55 2.813zm0-.891c-1.01 0-1.47-.877-1.47-1.925s.46-1.932 1.47-1.932c1 0 1.47.888 1.47 1.932s-.47 1.925-1.47 1.925zm6.12.891c1.54 0 2.54-1.126 2.54-2.812 0-1.698-1-2.823-2.54-2.823s-2.54 1.126-2.54 2.823c0 1.687 1 2.813 2.54 2.813zm.01-.891c-1.01 0-1.48-.877-1.48-1.925s.47-1.932 1.48-1.932c.99 0 1.46.888 1.46 1.932s-.47 1.925-1.46 1.925zm4.88-6.492h-1.06V69h1.06v-7.273zm5.62 3.15c-.22-.849-.89-1.403-2.07-1.403-1.23 0-2.1.65-2.1 1.616 0 .774.47 1.289 1.49 1.516l.92.202c.53.117.77.352.77.693 0 .423-.45.753-1.14.753-.64 0-1.05-.273-1.18-.81l-1.02.156c.18.966.98 1.509 2.2 1.509 1.32 0 2.23-.7 2.23-1.687 0-.771-.49-1.246-1.49-1.477l-.86-.199c-.6-.142-.86-.345-.86-.714 0-.419.45-.717 1.05-.717.66 0 .97.366 1.09.731l.97-.171z" fill="#999"/><path class="A D K" transform="translate(1030 81)" d="M0 0h165v40H0z" opacity="0"/><rect x="1042" y="89" width="24" height="24" rx="4" fill="#fff"/><path d="M1048 99h12m-11 7h10a1 1 0 0 0 1-1v-8a1 1 0 0 0-1-1h-10a1 1 0 0 0-1 1v8a1 1 0 0 0 1 1z" stroke="#151515"/><path d="M1075.53 106l.95-2.678h3.83l.95 2.678h1.2l-3.47-9.454h-1.19l-3.47 9.454h1.2zm1.31-3.693l1.52-4.266h.07l1.52 4.266h-3.11zm6.75 6.352h1.09v-3.748h.09c.24.387.7 1.237 2.07 1.237 1.77 0 3.01-1.422 3.01-3.675 0-2.234-1.24-3.656-3.03-3.656-1.39 0-1.81.849-2.05 1.219h-.13v-1.127h-1.05v9.75zm1.07-6.204c0-1.589.7-2.659 2.03-2.659 1.38 0 2.07 1.163 2.07 2.659 0 1.514-.7 2.714-2.07 2.714-1.31 0-2.03-1.108-2.03-2.714zm6.65 6.204h1.09v-3.748h.1c.24.387.7 1.237 2.06 1.237 1.78 0 3.01-1.422 3.01-3.675 0-2.234-1.23-3.656-3.02-3.656-1.39 0-1.81.849-2.05 1.219h-.13v-1.127h-1.06v9.75zm1.08-6.204c0-1.589.7-2.659 2.03-2.659 1.38 0 2.06 1.163 2.06 2.659 0 1.514-.7 2.714-2.06 2.714-1.31 0-2.03-1.108-2.03-2.714zm7.74-5.909h-1.09V106h1.09v-9.454zm1.8 9.454h1.09v-7.091h-1.09V106zm.56-8.273c.42 0 .77-.332.77-.739s-.35-.739-.77-.739c-.43 0-.78.332-.78.739s.35.739.78.739zm5.21 8.421c1.57 0 2.61-.96 2.79-2.216h-1.09c-.2.775-.85 1.237-1.7 1.237-1.29 0-2.12-1.071-2.12-2.714 0-1.607.85-2.659 2.12-2.659.96 0 1.53.59 1.7 1.237h1.09c-.18-1.33-1.31-2.216-2.81-2.216-1.92 0-3.19 1.514-3.19 3.674 0 2.124 1.22 3.657 3.21 3.657zm6.27.018c1.24 0 1.89-.665 2.11-1.126h.05v.96h1.09v-4.672c0-2.253-1.71-2.511-2.62-2.511-1.07 0-2.29.369-2.84 1.662l1.03.369c.24-.517.81-1.071 1.85-1.071 1 0 1.49.531 1.49 1.44v.037c0 .527-.53.48-1.82.647-1.32.17-2.75.461-2.75 2.086 0 1.385 1.07 2.179 2.41 2.179zm.17-.978c-.87 0-1.5-.388-1.5-1.145 0-.831.76-1.09 1.61-1.201.46-.055 1.7-.184 1.88-.406v.997c0 .887-.7 1.755-1.99 1.755zm7.96-6.279h-1.51V97.21h-1.09v1.699h-1.07v.923h1.07v4.432c0 1.237 1 1.828 1.92 1.828a2.3 2.3 0 0 0 .81-.129l-.22-.979c-.09.019-.24.056-.48.056-.48 0-.94-.148-.94-1.071v-4.137h1.51v-.923zm1.45 7.091h1.09v-7.091h-1.09V106zm.55-8.273c.42 0 .78-.332.78-.739s-.36-.739-.78-.739c-.43 0-.78.332-.78.739s.35.739.78.739zm5.22 8.421c1.92 0 3.21-1.459 3.21-3.657 0-2.215-1.29-3.674-3.21-3.674s-3.22 1.459-3.22 3.674c0 2.198 1.3 3.657 3.22 3.657zm0-.979c-1.46 0-2.13-1.256-2.13-2.678s.67-2.695 2.13-2.695 2.12 1.274 2.12 2.695-.66 2.678-2.12 2.678zm5.77-3.435c0-1.237.76-1.938 1.81-1.938 1.01 0 1.62.66 1.62 1.772V106h1.09v-4.506c0-1.809-.96-2.677-2.4-2.677-1.07 0-1.74.48-2.07 1.2h-.09v-1.108H1134V106h1.09v-4.266z" class="D"/><path d="M1180.05 100.74a.3.3 0 0 1 0 .52l-3.6 2.078a.3.3 0 0 1-.45-.26v-4.157a.3.3 0 0 1 .45-.26l3.6 2.078z" fill="gray"/><path class="B D K" transform="translate(1030 121)" d="M0 0h165v40H0z"/><rect x="1042" y="129" width="24" height="24" rx="4" class="G"/><path d="M1055.15 140.35h3.35a1 1 0 0 0 1-1V136m-.3 3.5c-.72-2.039-2.67-3.5-4.95-3.5a5.25 5.25 0 1 0 0 10.5 5.26 5.26 0 0 0 4.55-2.625" class="E F"/><path d="M1074.63 137.561h2.97V146h1.15v-8.439h2.97v-1.016h-7.09v1.016zm9.63 8.605c1.24 0 1.89-.665 2.11-1.126h.06v.96h1.08v-4.672c0-2.253-1.71-2.511-2.62-2.511-1.07 0-2.29.369-2.84 1.662l1.03.369c.24-.517.81-1.071 1.85-1.071 1 0 1.5.531 1.5 1.44v.037c0 .527-.54.48-1.83.647-1.32.17-2.75.461-2.75 2.086 0 1.385 1.07 2.179 2.41 2.179zm.17-.978c-.87 0-1.49-.388-1.49-1.145 0-.831.75-1.09 1.6-1.201.46-.055 1.7-.184 1.89-.406v.997c0 .887-.71 1.755-2 1.755zm9.9-4.691c-.34-1.006-1.11-1.68-2.51-1.68-1.5 0-2.6.849-2.6 2.049 0 .979.58 1.635 1.88 1.939l1.18.277c.72.167 1.05.508 1.05.998 0 .609-.64 1.108-1.66 1.108-.89 0-1.45-.384-1.64-1.145l-1.04.258c.26 1.205 1.25 1.847 2.7 1.847 1.65 0 2.77-.9 2.77-2.124 0-.988-.62-1.611-1.88-1.92l-1.06-.259c-.84-.208-1.21-.489-1.21-1.034 0-.609.64-1.052 1.51-1.052.95 0 1.34.526 1.53 1.015l.98-.277zm1.58 5.503h1.08v-2.654l.77-.707 2.65 3.361h1.39l-3.22-4.062 2.99-3.029h-1.34l-3.11 3.158h-.13v-5.522h-1.08V146zm11.89-5.503c-.34-1.006-1.1-1.68-2.51-1.68-1.49 0-2.6.849-2.6 2.049 0 .979.58 1.635 1.88 1.939l1.18.277c.72.167 1.06.508 1.06.998 0 .609-.65 1.108-1.66 1.108-.9 0-1.45-.384-1.65-1.145l-1.03.258c.25 1.205 1.24 1.847 2.69 1.847 1.65 0 2.77-.9 2.77-2.124 0-.988-.62-1.611-1.88-1.92l-1.05-.259c-.84-.208-1.22-.489-1.22-1.034 0-.609.65-1.052 1.51-1.052.95 0 1.35.526 1.54 1.015l.97-.277z" class="D"/><use xlink:href="#E" fill="gray"/><path class="C D K" transform="translate(1030 161)" d="M0 0h165v40H0z" opacity="0"/><rect x="1042" y="169" width="24" height="24" rx="4" fill="#131313"/><path d="M1049 177l4.08 3.398a1 1 0 0 1 0 1.537l-4.08 3.398m5 0h5.83" class="E F"/><path d="M1074.63 177.561h2.97V186h1.15v-8.439h2.97v-1.016h-7.09v1.016zm10.46 8.587c1.44 0 2.49-.72 2.82-1.791l-1.05-.296c-.28.739-.92 1.108-1.77 1.108-1.28 0-2.16-.826-2.21-2.345h5.14v-.462c0-2.64-1.57-3.545-3.04-3.545-1.92 0-3.2 1.514-3.2 3.693s1.26 3.638 3.31 3.638zm-2.21-4.266c.07-1.103.85-2.087 2.1-2.087 1.18 0 1.94.887 1.94 2.087h-4.04zm6.61 4.118h1.09v-4.487c0-.96.75-1.662 1.79-1.662.29 0 .59.055.66.074v-1.108l-.57-.019c-.85 0-1.59.48-1.85 1.182h-.07v-1.071h-1.05V186zm4.64 0h1.09v-4.432c0-1.039.75-1.773 1.6-1.773.83 0 1.41.541 1.41 1.348V186h1.11v-4.616c0-.915.57-1.589 1.56-1.589.78 0 1.45.411 1.45 1.459V186h1.08v-4.746c0-1.666-.89-2.437-2.16-2.437-1.01 0-1.75.466-2.12 1.2h-.07c-.35-.757-.97-1.2-1.91-1.2-.92 0-1.6.443-1.9 1.2h-.09v-1.108h-1.05V186zm11.1 0h1.09v-7.091h-1.09V186zm.56-8.273c.42 0 .77-.332.77-.738s-.35-.739-.77-.739c-.43 0-.78.332-.78.739s.35.738.78.738zm3.42 4.007c0-1.237.77-1.939 1.81-1.939 1.01 0 1.63.661 1.63 1.773V186h1.09v-4.506c0-1.809-.97-2.677-2.41-2.677-1.07 0-1.73.48-2.06 1.2h-.1v-1.108h-1.05V186h1.09v-4.266zm8.41 4.432c1.24 0 1.88-.665 2.1-1.126h.06v.96h1.09v-4.672c0-2.253-1.72-2.511-2.62-2.511-1.08 0-2.29.369-2.85 1.662l1.04.369c.24-.517.8-1.071 1.84-1.071 1 0 1.5.531 1.5 1.44v.037c0 .527-.54.48-1.83.647-1.32.17-2.75.461-2.75 2.086 0 1.385 1.07 2.179 2.42 2.179zm.16-.978c-.86 0-1.49-.388-1.49-1.145 0-.831.76-1.09 1.6-1.201.47-.055 1.7-.184 1.89-.406v.997c0 .887-.7 1.755-2 1.755zm5.97-8.643h-1.09V186h1.09v-9.455zm6.82 3.952c-.34-1.006-1.1-1.68-2.51-1.68-1.49 0-2.6.849-2.6 2.049 0 .979.58 1.635 1.88 1.939l1.18.277c.72.167 1.06.508 1.06.998 0 .609-.65 1.108-1.66 1.108-.9 0-1.45-.384-1.65-1.145l-1.03.258c.25 1.205 1.24 1.847 2.69 1.847 1.65 0 2.77-.9 2.77-2.124 0-.988-.62-1.611-1.88-1.92l-1.05-.259c-.84-.208-1.22-.489-1.22-1.034 0-.609.64-1.052 1.51-1.052.95 0 1.35.526 1.54 1.015l.97-.277z" class="D"/><use xlink:href="#E" y="40" fill="gray"/></g><g class="C" filter="url(#B)" opacity="0"><path transform="translate(1191 161)" d="M0 0h187v48H0z" class="H"/><path d="M1206.77 188.338h1.03v-2.53h2.53v-1.034h-2.53v-2.53h-1.03v2.53h-2.53v1.034h2.53v2.53zm16.71-7.793h-1.13v7.442h-.09l-5.17-7.442h-1.11V190h1.15v-7.423h.09l5.15 7.423h1.11v-9.455zm4.92 9.603c1.44 0 2.49-.72 2.82-1.791l-1.05-.296c-.28.739-.92 1.108-1.77 1.108-1.28 0-2.16-.826-2.21-2.345h5.14v-.462c0-2.64-1.56-3.545-3.04-3.545-1.92 0-3.2 1.514-3.2 3.693s1.26 3.638 3.31 3.638zm-2.21-4.266c.07-1.103.85-2.087 2.1-2.087 1.18 0 1.94.887 1.94 2.087h-4.04zm8.21 4.118h1.07l1.56-5.447h.11l1.55 5.447h1.07l2.16-7.091h-1.15l-1.53 5.411h-.07l-1.5-5.411h-1.16l-1.52 5.429h-.07l-1.53-5.429h-1.15l2.16 7.091zm11.86-8.439h2.97V190h1.14v-8.439h2.98v-1.016h-7.09v1.016zm10.46 8.587c1.44 0 2.49-.72 2.82-1.791l-1.05-.296c-.28.739-.92 1.108-1.77 1.108-1.28 0-2.16-.826-2.21-2.345h5.14v-.462c0-2.64-1.57-3.545-3.04-3.545-1.92 0-3.2 1.514-3.2 3.693s1.26 3.638 3.31 3.638zm-2.21-4.266c.07-1.103.85-2.087 2.1-2.087 1.18 0 1.93.887 1.93 2.087h-4.03zm6.6 4.118h1.09v-4.487c0-.96.76-1.662 1.8-1.662.29 0 .59.055.66.074v-1.108l-.57-.019c-.85 0-1.59.48-1.85 1.182h-.07v-1.071h-1.06V190zm4.65 0h1.09v-4.432c0-1.039.75-1.773 1.6-1.773.83 0 1.41.541 1.41 1.348V190h1.1v-4.616c0-.915.58-1.589 1.57-1.589.78 0 1.44.411 1.44 1.459V190h1.09v-4.746c0-1.666-.89-2.437-2.16-2.437-1.01 0-1.76.466-2.12 1.2h-.07c-.36-.757-.97-1.2-1.91-1.2-.92 0-1.6.443-1.9 1.2h-.09v-1.108h-1.05V190zm11.1 0h1.09v-7.091h-1.09V190zm.55-8.273c.43 0 .78-.332.78-.738s-.35-.739-.78-.739c-.42 0-.77.332-.77.739s.35.738.77.738zm3.43 4.007c0-1.237.77-1.939 1.81-1.939 1.01 0 1.62.661 1.62 1.773V190h1.09v-4.506c0-1.809-.96-2.677-2.4-2.677-1.07 0-1.73.48-2.06 1.2h-.1v-1.108h-1.05V190h1.09v-4.266zm8.41 4.432c1.23 0 1.88-.665 2.1-1.126h.06v.96h1.09v-4.672c0-2.253-1.72-2.511-2.63-2.511-1.07 0-2.29.369-2.84 1.662l1.03.369c.24-.517.81-1.071 1.85-1.071 1 0 1.5.531 1.5 1.44v.037c0 .527-.54.48-1.83.647-1.32.17-2.75.461-2.75 2.086 0 1.385 1.07 2.179 2.42 2.179zm.16-.978c-.86 0-1.49-.388-1.49-1.145 0-.831.75-1.09 1.6-1.201.47-.055 1.7-.184 1.89-.406v.997c0 .887-.7 1.755-2 1.755zm5.97-8.643h-1.09V190h1.09v-9.455z" class="D"/></g><g class="B" filter="url(#C)"><path transform="translate(1191 121)" d="M0 0h190v208H0z" class="H"/><rect x="1203" y="133" width="24" height="24" rx="4" class="G"/><path d="M1216.15 144.35h3.35a1 1 0 0 0 1-1V140m-.3 3.5c-.72-2.039-2.67-3.5-4.95-3.5a5.25 5.25 0 1 0 0 10.5 5.26 5.26 0 0 0 4.55-2.625" class="E F"/><path d="M1236.14 150h1.15v-4.229h4.1v-1.015h-4.1v-3.195h4.52v-1.016h-5.67V150zm9.65.148c1.92 0 3.22-1.459 3.22-3.657 0-2.215-1.3-3.674-3.22-3.674s-3.21 1.459-3.21 3.674c0 2.198 1.29 3.657 3.21 3.657zm0-.979c-1.46 0-2.12-1.256-2.12-2.678s.66-2.696 2.12-2.696 2.13 1.275 2.13 2.696-.67 2.678-2.13 2.678zm4.68.831h1.09v-4.487c0-.96.76-1.662 1.79-1.662a3.43 3.43 0 0 1 .67.074v-1.108l-.57-.019c-.85 0-1.59.48-1.85 1.182h-.07v-1.071h-1.06V150zm4.65 0h1.08v-4.432c0-1.039.76-1.773 1.61-1.773.83 0 1.4.541 1.4 1.348V150h1.11v-4.616c0-.915.58-1.589 1.57-1.589.78 0 1.44.411 1.44 1.459V150h1.09v-4.746c0-1.666-.89-2.437-2.16-2.437-1.01 0-1.76.466-2.12 1.2h-.08c-.35-.757-.97-1.2-1.9-1.2-.92 0-1.6.443-1.9 1.2h-.09v-1.108h-1.05V150zm13.19.166c1.23 0 1.88-.665 2.1-1.126h.06v.96h1.09v-4.672c0-2.253-1.72-2.511-2.63-2.511-1.07 0-2.29.369-2.84 1.662l1.03.369c.24-.517.81-1.071 1.85-1.071 1 0 1.5.531 1.5 1.44v.037c0 .527-.54.48-1.83.647-1.32.17-2.75.461-2.75 2.086 0 1.385 1.07 2.179 2.42 2.179zm.16-.978c-.87 0-1.49-.388-1.49-1.145 0-.831.75-1.09 1.6-1.201.46-.055 1.7-.184 1.89-.406v.997c0 .887-.71 1.755-2 1.755zm7.96-6.279h-1.51v-1.699h-1.09v1.699h-1.07v.923h1.07v4.432c0 1.237 1 1.828 1.92 1.828.41 0 .66-.074.81-.129l-.22-.979c-.09.019-.24.056-.48.056-.48 0-.94-.148-.94-1.071v-4.137h1.51v-.923zm6.51 7.091h1.08l1.55-5.447h.11l1.55 5.447h1.07l2.16-7.091h-1.14l-1.54 5.411h-.07l-1.5-5.411h-1.16l-1.51 5.429h-.08l-1.53-5.429h-1.15l2.16 7.091zm11.41.148c1.92 0 3.21-1.459 3.21-3.657 0-2.215-1.29-3.674-3.21-3.674-1.93 0-3.22 1.459-3.22 3.674 0 2.198 1.29 3.657 3.22 3.657zm0-.979c-1.46 0-2.13-1.256-2.13-2.678s.67-2.696 2.13-2.696c1.45 0 2.12 1.275 2.12 2.696s-.67 2.678-2.12 2.678zm4.68.831h1.09v-4.487c0-.96.75-1.662 1.79-1.662.29 0 .59.055.66.074v-1.108l-.57-.019c-.85 0-1.59.48-1.85 1.182h-.07v-1.071h-1.05V150zm4.64 0h1.09v-2.654l.76-.707 2.65 3.361h1.39l-3.22-4.062 3-3.029h-1.35l-3.1 3.158h-.13v-5.522h-1.09V150zm11.9-5.503c-.34-1.006-1.11-1.68-2.51-1.68-1.5 0-2.61.849-2.61 2.049 0 .979.58 1.635 1.89 1.939l1.18.277c.71.167 1.05.508 1.05.998 0 .609-.65 1.108-1.66 1.108-.89 0-1.45-.384-1.65-1.145l-1.03.258c.25 1.205 1.25 1.847 2.7 1.847 1.64 0 2.77-.9 2.77-2.124 0-.988-.62-1.611-1.89-1.92l-1.05-.259c-.84-.208-1.22-.489-1.22-1.034 0-.609.65-1.052 1.52-1.052.95 0 1.34.526 1.53 1.015l.98-.277zm1.57 8.162h1.09v-3.748h.09c.24.387.71 1.237 2.07 1.237 1.77 0 3.01-1.422 3.01-3.675 0-2.234-1.24-3.656-3.03-3.656-1.38 0-1.81.849-2.05 1.219h-.13v-1.127h-1.05v9.75zm1.07-6.204c0-1.589.7-2.66 2.03-2.66 1.39 0 2.07 1.164 2.07 2.66 0 1.514-.7 2.714-2.07 2.714-1.31 0-2.03-1.108-2.03-2.714zm8.75 3.711c1.23 0 1.88-.665 2.1-1.126h.06v.96h1.09v-4.672c0-2.253-1.72-2.511-2.63-2.511-1.07 0-2.29.369-2.84 1.662l1.03.369c.24-.517.81-1.071 1.85-1.071 1 0 1.5.531 1.5 1.44v.037c0 .527-.54.48-1.83.647-1.32.17-2.75.461-2.75 2.086 0 1.385 1.07 2.179 2.42 2.179zm.16-.978c-.87 0-1.49-.388-1.49-1.145 0-.831.75-1.09 1.6-1.201.46-.055 1.7-.184 1.89-.406v.997c0 .887-.71 1.755-2 1.755zm7.76.96c1.57 0 2.6-.96 2.79-2.216h-1.09c-.2.775-.85 1.237-1.7 1.237-1.29 0-2.12-1.071-2.12-2.714 0-1.607.85-2.66 2.12-2.66.96 0 1.53.591 1.7 1.238h1.09c-.19-1.33-1.31-2.216-2.81-2.216-1.92 0-3.19 1.514-3.19 3.674 0 2.124 1.21 3.657 3.21 3.657zm7.16 0c1.44 0 2.49-.72 2.82-1.791l-1.05-.296c-.28.739-.92 1.108-1.77 1.108-1.28 0-2.16-.826-2.21-2.345h5.14v-.462c0-2.64-1.57-3.545-3.04-3.545-1.92 0-3.2 1.514-3.2 3.693s1.26 3.638 3.31 3.638zm-2.21-4.266c.07-1.103.85-2.087 2.1-2.087 1.18 0 1.94.887 1.94 2.087h-4.04z" class="D"/><rect x="1203" y="173" width="24" height="24" rx="4" class="G"/><path d="M1216.15 184.35h3.35a1 1 0 0 0 1-1V180m-.3 3.5c-.72-2.039-2.67-3.5-4.95-3.5a5.25 5.25 0 1 0 0 10.5 5.26 5.26 0 0 0 4.55-2.625" class="E F"/><path d="M1236.14 190h1.15v-4.229h4.1v-1.015h-4.1v-3.195h4.52v-1.016h-5.67V190zm7.29 0h1.09v-7.091h-1.09V190zm.56-8.273c.42 0 .77-.332.77-.738s-.35-.739-.77-.739c-.43 0-.78.332-.78.739s.35.738.78.738zm3.14 1.182h-1.25l2.25 3.546-2.25 3.545h1.25l1.7-2.751 1.7 2.751h1.26l-2.29-3.545 2.29-3.546h-1.26l-1.7 2.899-1.7-2.899zm10.57-2.364h-1.09V190h1.09v-9.455zm1.8 9.455h1.09v-7.091h-1.09V190zm.55-8.273c.43 0 .78-.332.78-.738s-.35-.739-.78-.739c-.42 0-.77.332-.77.739s.35.738.77.738zm3.43 4.007c0-1.237.76-1.939 1.81-1.939 1.01 0 1.62.661 1.62 1.773V190h1.09v-4.506c0-1.809-.96-2.677-2.4-2.677-1.07 0-1.73.48-2.07 1.2h-.09v-1.108h-1.05V190h1.09v-4.266zm9.4-2.825h-1.51v-1.699h-1.09v1.699h-1.07v.923h1.07v4.432c0 1.237 1 1.828 1.92 1.828a2.3 2.3 0 0 0 .81-.129l-.22-.979c-.09.019-.24.056-.48.056-.48 0-.94-.148-.94-1.071v-4.137h1.51v-.923z" class="D"/><rect x="1203" y="213" width="24" height="24" rx="4" class="G"/><path d="M1216.15 224.35h3.35a1 1 0 0 0 1-1V220m-.3 3.5c-.72-2.039-2.67-3.5-4.95-3.5a5.25 5.25 0 1 0 0 10.5 5.26 5.26 0 0 0 4.55-2.625" class="E F"/><path d="M1235.63 221.561h2.97V230h1.15v-8.439h2.97v-1.016h-7.09v1.016zm10.46 8.587c1.44 0 2.49-.72 2.82-1.791l-1.05-.296c-.28.739-.92 1.108-1.77 1.108-1.28 0-2.16-.826-2.21-2.345h5.14v-.462c0-2.64-1.57-3.545-3.04-3.545-1.92 0-3.2 1.514-3.2 3.693s1.26 3.638 3.31 3.638zm-2.21-4.266c.07-1.103.85-2.087 2.1-2.087 1.18 0 1.94.887 1.94 2.087h-4.04zm11.63-1.385c-.34-1.006-1.11-1.68-2.51-1.68-1.5 0-2.61.849-2.61 2.049 0 .979.59 1.635 1.89 1.939l1.18.277c.71.167 1.05.508 1.05.998 0 .609-.64 1.108-1.66 1.108-.89 0-1.45-.384-1.64-1.145l-1.04.258c.26 1.205 1.25 1.847 2.7 1.847 1.65 0 2.77-.9 2.77-2.124 0-.988-.62-1.611-1.89-1.92l-1.05-.259c-.84-.208-1.22-.489-1.22-1.034 0-.609.65-1.052 1.52-1.052.95 0 1.34.526 1.53 1.015l.98-.277zm4.66-1.588h-1.52v-1.699h-1.09v1.699h-1.07v.923h1.07v4.432c0 1.237 1 1.828 1.92 1.828.41 0 .67-.074.82-.129l-.23-.979c-.09.019-.24.056-.48.056-.48 0-.94-.148-.94-1.071v-4.137h1.52v-.923zm6.99 7.257c1.24 0 1.88-.665 2.1-1.126h.06v.96h1.09v-4.672c0-2.253-1.72-2.511-2.62-2.511-1.07 0-2.29.369-2.85 1.662l1.04.369c.24-.517.8-1.071 1.84-1.071 1.01 0 1.5.531 1.5 1.44v.037c0 .527-.54.48-1.83.647-1.31.17-2.75.461-2.75 2.086 0 1.385 1.07 2.179 2.42 2.179zm.16-.978c-.86 0-1.49-.388-1.49-1.145 0-.831.76-1.09 1.61-1.201.46-.055 1.69-.184 1.88-.406v.997c0 .887-.7 1.755-2 1.755zm5.97-8.643h-1.09V230h1.09v-9.455zm2.89 0h-1.09V230h1.09v-9.455z" class="D"/><rect x="1203" y="253" width="24" height="24" rx="4" class="G"/><path d="M1216.15 264.35h3.35a1 1 0 0 0 1-1V260m-.3 3.5c-.72-2.039-2.67-3.5-4.95-3.5a5.25 5.25 0 1 0 0 10.5 5.26 5.26 0 0 0 4.55-2.625" class="E F"/><path d="M1235.63 261.561h2.97V270h1.15v-8.439h2.97v-1.016h-7.09v1.016zm10.46 8.587c1.44 0 2.49-.72 2.82-1.791l-1.05-.296c-.28.739-.92 1.108-1.77 1.108-1.28 0-2.16-.826-2.21-2.345h5.14v-.462c0-2.64-1.57-3.545-3.04-3.545-1.92 0-3.2 1.514-3.2 3.693s1.26 3.638 3.31 3.638zm-2.21-4.266c.07-1.103.85-2.087 2.1-2.087 1.18 0 1.94.887 1.94 2.087h-4.04zm11.63-1.385c-.34-1.006-1.11-1.68-2.51-1.68-1.5 0-2.61.849-2.61 2.049 0 .979.59 1.635 1.89 1.939l1.18.277c.71.167 1.05.508 1.05.998 0 .609-.64 1.108-1.66 1.108-.89 0-1.45-.384-1.64-1.145l-1.04.258c.26 1.205 1.25 1.847 2.7 1.847 1.65 0 2.77-.9 2.77-2.124 0-.988-.62-1.611-1.89-1.92l-1.05-.259c-.84-.208-1.22-.489-1.22-1.034 0-.609.65-1.052 1.52-1.052.95 0 1.34.526 1.53 1.015l.98-.277zm4.66-1.588h-1.52v-1.699h-1.09v1.699h-1.07v.923h1.07v4.432c0 1.237 1 1.828 1.92 1.828.41 0 .67-.074.82-.129l-.23-.979c-.09.019-.24.056-.48.056-.48 0-.94-.148-.94-1.071v-4.137h1.52v-.923zm6.99 7.257c1.24 0 1.88-.665 2.1-1.126h.06v.96h1.09v-4.672c0-2.253-1.72-2.511-2.62-2.511-1.07 0-2.29.369-2.85 1.662l1.04.369c.24-.517.8-1.071 1.84-1.071 1.01 0 1.5.531 1.5 1.44v.037c0 .527-.54.48-1.83.647-1.31.17-2.75.461-2.75 2.086 0 1.385 1.07 2.179 2.42 2.179zm.16-.978c-.86 0-1.49-.388-1.49-1.145 0-.831.76-1.09 1.61-1.201.46-.055 1.69-.184 1.88-.406v.997c0 .887-.7 1.755-2 1.755zm4.88 3.471h1.09v-3.748h.09c.24.387.71 1.237 2.07 1.237 1.77 0 3.01-1.422 3.01-3.675 0-2.234-1.24-3.656-3.03-3.656-1.38 0-1.81.849-2.05 1.219h-.13v-1.127h-1.05v9.75zm1.07-6.204c0-1.589.7-2.66 2.03-2.66 1.39 0 2.07 1.164 2.07 2.66 0 1.514-.7 2.714-2.07 2.714-1.31 0-2.03-1.108-2.03-2.714zm6.66 6.204h1.09v-3.748h.09c.24.387.7 1.237 2.07 1.237 1.77 0 3.01-1.422 3.01-3.675 0-2.234-1.24-3.656-3.03-3.656-1.38 0-1.81.849-2.05 1.219h-.13v-1.127h-1.05v9.75zm1.07-6.204c0-1.589.7-2.66 2.03-2.66 1.39 0 2.07 1.164 2.07 2.66 0 1.514-.7 2.714-2.07 2.714-1.31 0-2.03-1.108-2.03-2.714z" class="D"/><rect x="1203" y="293" width="24" height="24" rx="4" class="G"/><path d="M1216.15 304.35h3.35a1 1 0 0 0 1-1V300m-.3 3.5c-.72-2.039-2.67-3.5-4.95-3.5a5.25 5.25 0 1 0 0 10.5 5.26 5.26 0 0 0 4.55-2.625" class="E F"/><path d="M1236.14 310h1.15v-3.693h2.07l.24-.005 1.99 3.698h1.33l-2.14-3.906c1.21-.41 1.77-1.394 1.77-2.649 0-1.672-.99-2.9-3.21-2.9h-3.2V310zm1.15-4.727v-3.712h2.01c1.54 0 2.13.748 2.13 1.884s-.59 1.828-2.11 1.828h-2.03zm9.72 4.875c1.44 0 2.5-.72 2.83-1.791l-1.05-.296c-.28.739-.92 1.108-1.78 1.108-1.27 0-2.16-.826-2.21-2.345h5.15v-.462c0-2.64-1.57-3.545-3.05-3.545-1.92 0-3.19 1.514-3.19 3.693s1.25 3.638 3.3 3.638zm-2.21-4.266c.08-1.103.86-2.087 2.1-2.087 1.19 0 1.94.887 1.94 2.087h-4.04zm7.7-5.337h-1.09V310h1.09v-9.455zm4.78 9.603c1.44 0 2.49-.72 2.82-1.791l-1.05-.296c-.28.739-.92 1.108-1.77 1.108-1.28 0-2.16-.826-2.22-2.345h5.15v-.462c0-2.64-1.57-3.545-3.04-3.545-1.93 0-3.2 1.514-3.2 3.693s1.26 3.638 3.31 3.638zm-2.22-4.266c.08-1.103.86-2.087 2.11-2.087 1.18 0 1.93.887 1.93 2.087h-4.04zm8.7 4.284c1.24 0 1.88-.665 2.11-1.126h.05v.96h1.09v-4.672c0-2.253-1.72-2.511-2.62-2.511-1.07 0-2.29.369-2.85 1.662l1.04.369c.24-.517.81-1.071 1.85-1.071 1 0 1.49.531 1.49 1.44v.037c0 .527-.53.48-1.83.647-1.31.17-2.75.461-2.75 2.086 0 1.385 1.07 2.179 2.42 2.179zm.17-.978c-.87 0-1.5-.388-1.5-1.145 0-.831.76-1.09 1.61-1.201.46-.055 1.7-.184 1.88-.406v.997c0 .887-.7 1.755-1.99 1.755zm9.9-4.691c-.34-1.006-1.11-1.68-2.51-1.68-1.5 0-2.61.849-2.61 2.049 0 .979.58 1.635 1.89 1.939l1.18.277c.71.167 1.05.508 1.05.998 0 .609-.65 1.108-1.66 1.108-.89 0-1.45-.384-1.65-1.145l-1.03.258c.25 1.205 1.25 1.847 2.7 1.847 1.64 0 2.77-.9 2.77-2.124 0-.988-.62-1.611-1.89-1.92l-1.05-.259c-.84-.208-1.22-.489-1.22-1.034 0-.609.65-1.052 1.52-1.052.95 0 1.34.526 1.53 1.015l.98-.277zm4.54 5.651c1.44 0 2.5-.72 2.83-1.791l-1.05-.296c-.28.739-.92 1.108-1.78 1.108-1.27 0-2.16-.826-2.21-2.345h5.15v-.462c0-2.64-1.57-3.545-3.05-3.545-1.92 0-3.19 1.514-3.19 3.693s1.25 3.638 3.3 3.638zm-2.21-4.266c.08-1.103.86-2.087 2.1-2.087 1.19 0 1.94.887 1.94 2.087h-4.04z" class="D"/></g><g class="A" filter="url(#D)" opacity="0"><path transform="translate(1191 81)" d="M0 0h150v88H0z" class="H"/><rect x="1203" y="93" width="24" height="24" rx="4" fill="#fff"/><path d="M1209 103h12m-11 7h10a1 1 0 0 0 1-1v-8a1 1 0 0 0-1-1h-10a1 1 0 0 0-1 1v8a1 1 0 0 0 1 1z" stroke="#151515"/><path d="M1236.14 110h1.15v-3.453h2.07c2.2 0 3.19-1.339 3.19-3.01s-.99-2.992-3.21-2.992h-3.2V110zm1.15-4.469v-3.97h2.01c1.54 0 2.13.84 2.13 1.976s-.59 1.994-2.11 1.994h-2.03zm6.76 4.469h1.09v-4.487c0-.96.76-1.662 1.79-1.662.3 0 .6.055.67.074v-1.108l-.57-.019c-.85 0-1.59.48-1.85 1.182h-.07v-1.071h-1.06V110zm7.4.148c1.44 0 2.5-.72 2.83-1.791l-1.05-.296c-.28.739-.92 1.108-1.78 1.108-1.28 0-2.16-.826-2.21-2.345h5.15v-.462c0-2.64-1.57-3.545-3.05-3.545-1.92 0-3.19 1.514-3.19 3.693s1.25 3.638 3.3 3.638zm-2.21-4.266c.08-1.103.86-2.087 2.1-2.087 1.18 0 1.94.887 1.94 2.087h-4.04zm12.19-2.973h-1.18l-1.96 5.651h-.07l-1.96-5.651h-1.18l2.62 7.091h1.11l2.62-7.091zm1.25 7.091h1.09v-7.091h-1.09V110zm.55-8.273c.43 0 .78-.332.78-.738s-.35-.739-.78-.739c-.42 0-.77.332-.77.739s.35.738.77.738zm5.31 8.421c1.44 0 2.49-.72 2.83-1.791l-1.06-.296c-.27.739-.92 1.108-1.77 1.108-1.28 0-2.16-.826-2.21-2.345h5.15v-.462c0-2.64-1.57-3.545-3.05-3.545-1.92 0-3.2 1.514-3.2 3.693s1.26 3.638 3.31 3.638zm-2.21-4.266c.07-1.103.85-2.087 2.1-2.087 1.18 0 1.94.887 1.94 2.087h-4.04zm8.22 4.118h1.07l1.55-5.447h.11l1.55 5.447h1.07l2.16-7.091h-1.14l-1.54 5.411h-.07l-1.5-5.411h-1.16l-1.51 5.429h-.08l-1.53-5.429h-1.15l2.17 7.091z" class="D"/><rect x="1203" y="133" width="24" height="24" rx="4" class="G"/><path d="M1210 141l4.08 3.398a1 1 0 0 1 0 1.537l-4.08 3.398m5 0h5.83" class="E F"/><path d="M1236.14 150h5.54v-1.016h-4.39v-8.439h-1.15V150zm9.86.148c1.92 0 3.21-1.459 3.21-3.657 0-2.215-1.29-3.674-3.21-3.674-1.93 0-3.22 1.459-3.22 3.674 0 2.198 1.29 3.657 3.22 3.657zm0-.979c-1.46 0-2.13-1.256-2.13-2.678s.67-2.696 2.13-2.696c1.45 0 2.12 1.275 2.12 2.696s-.67 2.678-2.12 2.678zm7.54 3.638c1.7 0 3.06-.776 3.06-2.604v-7.294h-1.05v1.127h-.11c-.24-.37-.68-1.219-2.07-1.219-1.79 0-3.03 1.422-3.03 3.601 0 2.216 1.3 3.471 3.01 3.471 1.39 0 1.83-.812 2.07-1.2h.09v1.44c0 1.182-.83 1.718-1.97 1.718-1.29 0-1.74-.679-2.03-1.071l-.87.609c.44.743 1.32 1.422 2.9 1.422zm-.04-3.896c-1.36 0-2.07-1.035-2.07-2.512 0-1.44.69-2.604 2.07-2.604 1.33 0 2.03 1.071 2.03 2.604 0 1.57-.72 2.512-2.03 2.512z" class="D"/></g><path d="M1112 37l8.485 8.485-8.485 8.485-8.485-8.485z" class="H"/><defs><filter id="A" x="1013" y="33" width="199" height="194" filterUnits="userSpaceOnUse" class="I"><feFlood result="A" class="J"/><feColorMatrix in="SourceAlpha" values="0 0 0 0 0 0 0 0 0 0 0 0 0 0 0 0 0 0 127 0"/><feOffset dy="5"/><feGaussianBlur stdDeviation="8.5"/><feColorMatrix values="0 0 0 0 0 0 0 0 0 0 0 0 0 0 0 0 0 0 0.2 0"/><feBlend in2="A" result="C"/><feColorMatrix in="SourceAlpha" values="0 0 0 0 0 0 0 0 0 0 0 0 0 0 0 0 0 0 127 0"/><feOffset dy="2"/><feGaussianBlur stdDeviation="3.5"/><feColorMatrix values="0 0 0 0 0 0 0 0 0 0 0 0 0 0 0 0 0 0 0.15 0"/><feBlend in2="C"/><feBlend in="SourceGraphic"/></filter><filter id="B" x="1174" y="149" width="221" height="82" filterUnits="userSpaceOnUse" class="I"><feFlood result="A" class="J"/><feColorMatrix in="SourceAlpha" values="0 0 0 0 0 0 0 0 0 0 0 0 0 0 0 0 0 0 127 0"/><feOffset dy="5"/><feGaussianBlur stdDeviation="8.5"/><feColorMatrix values="0 0 0 0 0 0 0 0 0 0 0 0 0 0 0 0 0 0 0.2 0"/><feBlend in2="A" result="C"/><feColorMatrix in="SourceAlpha" values="0 0 0 0 0 0 0 0 0 0 0 0 0 0 0 0 0 0 127 0"/><feOffset dy="2"/><feGaussianBlur stdDeviation="3.5"/><feColorMatrix values="0 0 0 0 0 0 0 0 0 0 0 0 0 0 0 0 0 0 0.15 0"/><feBlend in2="C"/><feBlend in="SourceGraphic"/></filter><filter id="C" x="1174" y="109" width="224" height="242" filterUnits="userSpaceOnUse" class="I"><feFlood result="A" class="J"/><feColorMatrix in="SourceAlpha" values="0 0 0 0 0 0 0 0 0 0 0 0 0 0 0 0 0 0 127 0"/><feOffset dy="5"/><feGaussianBlur stdDeviation="8.5"/><feColorMatrix values="0 0 0 0 0 0 0 0 0 0 0 0 0 0 0 0 0 0 0.2 0"/><feBlend in2="A" result="C"/><feColorMatrix in="SourceAlpha" values="0 0 0 0 0 0 0 0 0 0 0 0 0 0 0 0 0 0 127 0"/><feOffset dy="2"/><feGaussianBlur stdDeviation="3.5"/><feColorMatrix values="0 0 0 0 0 0 0 0 0 0 0 0 0 0 0 0 0 0 0.15 0"/><feBlend in2="C"/><feBlend in="SourceGraphic"/></filter><filter id="D" x="1174" y="69" width="184" height="122" filterUnits="userSpaceOnUse" class="I"><feFlood result="A" class="J"/><feColorMatrix in="SourceAlpha" values="0 0 0 0 0 0 0 0 0 0 0 0 0 0 0 0 0 0 127 0"/><feOffset dy="5"/><feGaussianBlur stdDeviation="8.5"/><feColorMatrix values="0 0 0 0 0 0 0 0 0 0 0 0 0 0 0 0 0 0 0.2 0"/><feBlend in2="A" result="C"/><feColorMatrix in="SourceAlpha" values="0 0 0 0 0 0 0 0 0 0 0 0 0 0 0 0 0 0 127 0"/><feOffset dy="2"/><feGaussianBlur stdDeviation="3.5"/><feColorMatrix values="0 0 0 0 0 0 0 0 0 0 0 0 0 0 0 0 0 0 0.15 0"/><feBlend in2="C"/><feBlend in="SourceGraphic"/></filter><path id="E" d="M1180.05 140.74a.3.3 0 0 1 0 .52l-3.6 2.078a.3.3 0 0 1-.45-.26v-4.156a.3.3 0 0 1 .45-.26l3.6 2.078z"/></defs></svg>