<svg xmlns="http://www.w3.org/2000/svg" width="1440" height="810" viewBox="0 0 1440 810" fill="none">
  <rect width="1440" height="810" rx="6" fill="#151515"/>
  <rect x="848" y="60" width="580" height="365" rx="4" fill="#1F1F1F"/>
  <rect x="848" y="433" width="580" height="365" rx="4" fill="#1F1F1F"/>
  <path d="M1400 74C1400 72.8954 1400.9 72 1402 72H1414C1415.1 72 1416 72.8954 1416 74V86C1416 87.1046 1415.1 88 1414 88H1402C1400.9 88 1400 87.1046 1400 86V74Z" class="loading"/>
  <rect x="860" y="445" width="117" height="16" rx="2" class="loading"/>
  <rect x="860" y="72" width="117" height="16" rx="2" class="loading"/>
  <path d="M1400 447C1400 445.895 1400.9 445 1402 445H1414C1415.1 445 1416 445.895 1416 447V459C1416 460.105 1415.1 461 1414 461H1402C1400.9 461 1400 460.105 1400 459V447Z" class="loading"/>
  <rect x="12" y="60" width="112" height="16" rx="2" class="loading"/>
  <rect x="12" y="110" width="126" height="16" rx="2" class="loading"/>
  <rect x="12" y="162" width="112" height="16" rx="2" class="loading"/>
  <rect x="12" y="318" width="112" height="16" rx="2" class="loading"/>
  <rect x="12" y="214" width="101" height="16" rx="2" class="loading"/>
  <rect x="12" y="370" width="101" height="16" rx="2" class="loading"/>
  <rect x="12" y="266" width="95" height="16" rx="2" class="loading"/>
  <rect x="12" y="136" width="101" height="16" rx="2" class="loading"/>
  <rect x="12" y="188" width="89" height="16" rx="2" class="loading"/>
  <rect x="12" y="344" width="89" height="16" rx="2" class="loading"/>
  <rect x="12" y="240" width="89" height="16" rx="2" class="loading"/>
  <rect x="12" y="292" width="107" height="16" rx="2" class="loading"/>
  <path d="M644.47 29.1477C645.911 29.1477 646.963 28.4276 647.295 27.3565L646.243 27.0611C645.966 27.7997 645.324 28.169 644.47 28.169C643.191 28.169 642.31 27.3427 642.259 25.8239H647.406V25.3622C647.406 22.7216 645.837 21.8168 644.359 21.8168C642.439 21.8168 641.165 23.331 641.165 25.5099C641.165 27.6889 642.42 29.1477 644.47 29.1477ZM642.259 24.8821C642.333 23.7788 643.113 22.7955 644.359 22.7955C645.541 22.7955 646.298 23.6818 646.298 24.8821H642.259ZM649.686 21.9091H648.43L650.683 25.4545L648.43 29H649.686L651.384 26.2486L653.083 29H654.339L652.049 25.4545L654.339 21.9091H653.083L651.384 24.8082L649.686 21.9091ZM658.482 29.1477C660.052 29.1477 661.086 28.1875 661.271 26.9318H660.181C659.978 27.7074 659.332 28.169 658.482 28.169C657.19 28.169 656.359 27.098 656.359 25.4545C656.359 23.848 657.208 22.7955 658.482 22.7955C659.443 22.7955 660.015 23.3864 660.181 24.0327H661.271C661.086 22.7031 659.96 21.8168 658.464 21.8168C656.543 21.8168 655.269 23.331 655.269 25.4915C655.269 27.6151 656.488 29.1477 658.482 29.1477ZM664.95 29.1662C666.187 29.1662 666.834 28.5014 667.055 28.0398H667.111V29H668.2V24.3281C668.2 22.0753 666.483 21.8168 665.578 21.8168C664.507 21.8168 663.288 22.1861 662.734 23.4787L663.768 23.848C664.008 23.331 664.576 22.777 665.615 22.777C666.617 22.777 667.111 23.3079 667.111 24.2173V24.2543C667.111 24.7805 666.575 24.7344 665.282 24.9006C663.967 25.0714 662.531 25.3622 662.531 26.9872C662.531 28.3722 663.602 29.1662 664.95 29.1662ZM665.116 28.1875C664.248 28.1875 663.62 27.7997 663.62 27.0426C663.62 26.2116 664.378 25.9531 665.227 25.8423C665.689 25.7869 666.926 25.6577 667.111 25.4361V26.4332C667.111 27.3196 666.409 28.1875 665.116 28.1875ZM671.278 19.5455H670.189V29H671.278V19.5455ZM673.274 29H674.363V21.9091H673.274V29ZM673.828 20.7273C674.252 20.7273 674.603 20.3949 674.603 19.9886C674.603 19.5824 674.252 19.25 673.828 19.25C673.403 19.25 673.052 19.5824 673.052 19.9886C673.052 20.3949 673.403 20.7273 673.828 20.7273ZM679.036 29.1477C680.403 29.1477 680.864 28.2983 681.104 27.9105H681.233V29H682.286V19.5455H681.197V23.0355H681.104C680.864 22.6662 680.439 21.8168 679.055 21.8168C677.263 21.8168 676.026 23.2386 676.026 25.473C676.026 27.7259 677.263 29.1477 679.036 29.1477ZM679.184 28.169C677.817 28.169 677.116 26.9688 677.116 25.4545C677.116 23.9588 677.799 22.7955 679.184 22.7955C680.513 22.7955 681.215 23.8665 681.215 25.4545C681.215 27.0611 680.495 28.169 679.184 28.169ZM684.433 29H685.522V24.5128C685.522 23.5526 686.279 22.8509 687.313 22.8509C687.604 22.8509 687.904 22.9062 687.978 22.9247V21.8168C687.854 21.8075 687.567 21.7983 687.406 21.7983C686.556 21.7983 685.818 22.2784 685.559 22.9801H685.485V21.9091H684.433V29ZM691.356 29.1662C692.593 29.1662 693.24 28.5014 693.461 28.0398H693.517V29H694.606V24.3281C694.606 22.0753 692.889 21.8168 691.984 21.8168C690.913 21.8168 689.694 22.1861 689.14 23.4787L690.174 23.848C690.415 23.331 690.982 22.777 692.021 22.777C693.023 22.777 693.517 23.3079 693.517 24.2173V24.2543C693.517 24.7805 692.981 24.7344 691.689 24.9006C690.373 25.0714 688.937 25.3622 688.937 26.9872C688.937 28.3722 690.008 29.1662 691.356 29.1662ZM691.522 28.1875C690.655 28.1875 690.027 27.7997 690.027 27.0426C690.027 26.2116 690.784 25.9531 691.633 25.8423C692.095 25.7869 693.332 25.6577 693.517 25.4361V26.4332C693.517 27.3196 692.815 28.1875 691.522 28.1875ZM698.201 29H699.272L700.824 23.5526H700.934L702.485 29H703.556L705.717 21.9091H704.572L703.039 27.3196H702.966L701.47 21.9091H700.306L698.792 27.3381H698.718L697.186 21.9091H696.041L698.201 29Z" fill="#999999"/>
  <path fill-rule="evenodd" clip-rule="evenodd" d="M716.5 21.5C716.5 21.2239 716.724 21 717 21H720.833C721.45 21 722.003 21.3772 722.229 21.9509L723.931 26.2792C724.007 26.4704 724.191 26.5962 724.397 26.5962H728.813L727.391 25.1741C727.196 24.9788 727.196 24.6623 727.391 24.467C727.586 24.2717 727.903 24.2717 728.098 24.467L730.303 26.6721C730.537 26.9064 730.537 27.2863 730.303 27.5206L728.135 29.6884C727.94 29.8836 727.624 29.8836 727.428 29.6884C727.233 29.4931 727.233 29.1765 727.428 28.9812L728.813 27.5962H724.397C723.78 27.5962 723.226 27.219 723.001 26.6452L721.298 22.317C721.223 22.1257 721.039 22 720.833 22H717C716.724 22 716.5 21.7761 716.5 21.5ZM725.581 22L730.058 22C730.334 22 730.558 21.7761 730.558 21.5C730.558 21.2239 730.334 21 730.058 21L725.581 21C725.305 21 725.081 21.2239 725.081 21.5C725.081 21.7761 725.305 22 725.581 22Z" fill="#999999"/>
  <path d="M743.655 21.9091H742.067V21.1889C742.067 20.4872 742.362 20.1179 743.082 20.1179C743.396 20.1179 743.581 20.1918 743.692 20.2287L744.006 19.2869C743.839 19.2131 743.507 19.1023 742.972 19.1023C741.956 19.1023 740.977 19.7116 740.977 20.9304V21.9091H739.832V22.8324H740.977V29H742.067V22.8324H743.655V21.9091ZM747.863 29.1477C749.303 29.1477 750.356 28.4276 750.688 27.3565L749.635 27.0611C749.358 27.7997 748.717 28.169 747.863 28.169C746.584 28.169 745.702 27.3427 745.651 25.8239H750.799V25.3622C750.799 22.7216 749.229 21.8168 747.752 21.8168C745.831 21.8168 744.557 23.331 744.557 25.5099C744.557 27.6889 745.813 29.1477 747.863 29.1477ZM745.651 24.8821C745.725 23.7788 746.506 22.7955 747.752 22.7955C748.934 22.7955 749.691 23.6818 749.691 24.8821H745.651ZM754.543 29.1662C755.78 29.1662 756.426 28.5014 756.648 28.0398H756.703V29H757.793V24.3281C757.793 22.0753 756.075 21.8168 755.171 21.8168C754.1 21.8168 752.881 22.1861 752.327 23.4787L753.361 23.848C753.601 23.331 754.169 22.777 755.208 22.777C756.209 22.777 756.703 23.3079 756.703 24.2173V24.2543C756.703 24.7805 756.168 24.7344 754.875 24.9006C753.559 25.0714 752.124 25.3622 752.124 26.9872C752.124 28.3722 753.195 29.1662 754.543 29.1662ZM754.709 28.1875C753.841 28.1875 753.213 27.7997 753.213 27.0426C753.213 26.2116 753.97 25.9531 754.82 25.8423C755.281 25.7869 756.519 25.6577 756.703 25.4361V26.4332C756.703 27.3196 756.002 28.1875 754.709 28.1875ZM762.865 21.9091H761.351V20.2102H760.261V21.9091H759.19V22.8324H760.261V27.2642C760.261 28.5014 761.259 29.0923 762.182 29.0923C762.588 29.0923 762.847 29.0185 762.994 28.9631L762.773 27.9844C762.68 28.0028 762.533 28.0398 762.293 28.0398C761.813 28.0398 761.351 27.892 761.351 26.9688V22.8324H762.865V21.9091ZM768.973 26.1009C768.973 27.4304 767.957 28.0398 767.145 28.0398C766.24 28.0398 765.593 27.375 765.593 26.3409V21.9091H764.504V26.4148C764.504 28.2244 765.464 29.0923 766.794 29.0923C767.865 29.0923 768.566 28.5199 768.899 27.7997H768.973V29H770.062V21.9091H768.973V26.1009ZM772.058 29H773.147V24.5128C773.147 23.5526 773.904 22.8509 774.938 22.8509C775.229 22.8509 775.529 22.9062 775.603 22.9247V21.8168C775.479 21.8075 775.192 21.7983 775.031 21.7983C774.181 21.7983 773.443 22.2784 773.184 22.9801H773.11V21.9091H772.058V29ZM779.652 29.1477C781.092 29.1477 782.145 28.4276 782.477 27.3565L781.425 27.0611C781.148 27.7997 780.506 28.169 779.652 28.169C778.373 28.169 777.491 27.3427 777.441 25.8239H782.588V25.3622C782.588 22.7216 781.018 21.8168 779.541 21.8168C777.621 21.8168 776.346 23.331 776.346 25.5099C776.346 27.6889 777.602 29.1477 779.652 29.1477ZM777.441 24.8821C777.514 23.7788 778.295 22.7955 779.541 22.7955C780.723 22.7955 781.48 23.6818 781.48 24.8821H777.441Z" fill="#999999"/>
  <path d="M793.5 24L791.571 25.9293C791.532 25.9683 791.468 25.9683 791.429 25.9293L789.5 24" stroke="#999999" stroke-linecap="round"/>
  <path d="M13.437 19.7502C13.1609 19.7502 12.937 19.9741 12.937 20.2502C12.937 20.5264 13.1609 20.7502 13.437 20.7502V19.7502ZM26.562 20.7502C26.8382 20.7502 27.062 20.5264 27.062 20.2502C27.062 19.9741 26.8382 19.7502 26.562 19.7502V20.7502ZM13.437 23.5C13.1609 23.5 12.937 23.7239 12.937 24C12.937 24.2762 13.1609 24.5 13.437 24.5V23.5ZM26.562 24.5C26.8382 24.5 27.062 24.2762 27.062 24C27.062 23.7239 26.8382 23.5 26.562 23.5V24.5ZM13.437 27.2498C13.1609 27.2498 12.937 27.4736 12.937 27.7498C12.937 28.0259 13.1609 28.2498 13.437 28.2498V27.2498ZM19.562 28.2498C19.8382 28.2498 20.062 28.0259 20.062 27.7498C20.062 27.4736 19.8382 27.2498 19.562 27.2498V28.2498ZM13.437 20.7502H26.562V19.7502H13.437V20.7502ZM13.437 24.5H26.562V23.5H13.437V24.5ZM13.437 28.2498H19.562V27.2498H13.437V28.2498Z" fill="#999999"/>
  <style>
    @keyframes loading {
      0% {
        fill: #242424
      }

      50% {
        fill: #3C3C3C
      }

      100% {
        fill: #242424
      }
    }

    .loading {
      animation: 1.5s loading ease infinite;
    }
  </style>
</svg>